<?xml version="1.0" encoding="UTF-8"?>
<svg version="1.1" xmlns="http://www.w3.org/2000/svg" width="2400" height="485" fill="#7fdbca" >
<path d="M0 0 C67.32 0 134.64 0 204 0 C215.45789627 21.77000291 215.45789627 21.77000291 220.49272156 31.91027832 C221.45191035 33.84195372 222.41396856 35.77217998 223.37658691 37.70214844 C225.76263246 42.48729306 228.14419044 47.27466708 230.52581787 52.06201172 C232.55624467 56.14294579 234.58850875 60.22295582 236.62297058 64.30187988 C237.54940594 66.16101217 238.47334078 68.02137031 239.39709473 69.88183594 C242.33895583 75.78209566 245.32867617 81.64882491 248.41654253 87.47373962 C253.87102669 97.76360997 259.1356414 108.13949746 264.33007812 118.5625 C265.21168769 120.32764555 266.09348372 122.09269798 266.97544861 123.85766602 C268.8529507 127.61579619 270.72921559 131.37454029 272.60447693 135.13378906 C275.57980051 141.09813546 278.5583016 147.06089165 281.53723145 153.0234375 C288.39639743 166.75373197 295.25152094 180.48604368 302.10659027 194.21838379 C308.39732134 206.82011382 314.68894122 219.4213981 320.98381948 232.02105713 C323.93496377 237.92827767 326.88416524 243.83646252 329.83179474 249.74543762 C331.67634873 253.44209162 333.5226223 257.13788491 335.36932564 260.83346558 C336.21405847 262.52477708 337.05811093 264.21642864 337.90136528 265.90847778 C338.29424295 266.69672943 338.68712063 267.48498108 339.09190369 268.29711914 C339.42968055 268.97537247 339.76745741 269.65362579 340.11546993 270.35243225 C345.28026699 280.65024121 350.62955006 290.79614511 356 301 C362.6 314.2 369.2 327.4 376 341 C376.33 228.47 376.66 115.94 377 0 C420.56 0 464.12 0 509 0 C509 154.11 509 308.22 509 467 C440.69 467 372.38 467 302 467 C293.646875 450.314375 285.29375 433.62875 276.6875 416.4375 C274.07287842 411.21736084 271.45825684 405.99722168 268.7644043 400.61889648 C265.51330566 394.12121582 265.51330566 394.12121582 263.98005676 391.05555725 C262.93461984 388.96619438 261.88840175 386.87722224 260.84150696 384.78858948 C255.29811584 373.72769172 249.80149056 362.65095664 244.48950195 351.47680664 C239.25223081 340.46028919 233.82991901 329.54191538 228.35780334 318.64044189 C226.66323326 315.26439549 224.97139716 311.88699019 223.28015137 308.50927734 C219.6890609 301.33836762 216.09481313 294.16904395 212.5 287 C208.32488746 278.67367978 204.15123854 270.3466324 199.98097229 262.0178833 C198.33726889 258.73682154 196.69110913 255.45700086 195.0447998 252.17724609 C194.0095622 250.11041269 192.97444106 248.04352094 191.93945312 245.9765625 C191.50069351 245.10420959 191.0619339 244.23185669 190.60987854 243.33306885 C185.25534941 232.6248585 180.16804918 221.80592101 175 211 C160.48 181.96 145.96 152.92 131 123 C130.67 236.52 130.34 350.04 130 467 C87.1 467 44.2 467 0 467 C0 312.89 0 158.78 0 0 Z " fill="#7fdbca" transform="translate(673,0)"/>
<path d="M0 0 C49.17 0 98.34 0 149 0 C149.03738281 20.76292969 149.07476563 41.52585937 149.11328125 62.91796875 C149.1435627 76.08399066 149.17457278 89.25000482 149.20898438 102.41601562 C149.22703186 109.33569279 149.24489542 116.2553704 149.26245117 123.17504883 C149.2657627 124.47577586 149.2657627 124.47577586 149.26914114 125.80278021 C149.30441639 139.76356586 149.32932808 153.72435145 149.35034702 167.68516501 C149.37218527 182.03532928 149.40531105 196.38543623 149.44870156 210.73555166 C149.47508078 219.57522158 149.49287693 228.4148202 149.49934604 237.25452749 C149.50464229 243.33369091 149.5209992 249.41276496 149.54566566 255.49188032 C149.55953732 258.98811034 149.56890627 262.48418095 149.56500816 265.98044014 C149.5501872 299.73090791 152.77244887 335.11882237 177 361 C196.86497584 380.45506364 224.98639148 385.52786382 251.79638672 385.28295898 C280.17801207 384.71062595 308.09319924 378.8757876 329.36328125 358.7890625 C353.9998097 332.72909019 355.47108047 293.8597406 355.43273985 260.06665266 C355.43210439 256.56119428 355.44884218 253.05580745 355.46325684 249.55038452 C355.48583389 243.50591019 355.49789129 237.46149267 355.50238609 231.41697884 C355.50890032 222.67811023 355.53192871 213.93934342 355.55872939 205.20051628 C355.60179601 191.01544651 355.63187697 176.83038108 355.65356445 162.64526367 C355.67463496 148.88222116 355.701996 135.1192142 355.73754883 121.35620117 C355.74086909 120.06641203 355.74086909 120.06641203 355.74425644 118.75056654 C355.76162117 112.02388929 355.77934566 105.29721299 355.79718363 98.57053697 C355.88422248 65.71371348 355.9399401 32.85690529 356 0 C404.84 0 453.68 0 504 0 C504.12099405 76.11421821 504.12099405 76.11421821 504.14648438 108.00585938 C504.15235707 115.3042808 504.15841825 122.60270204 504.16479492 129.90112305 C504.16598179 131.27303327 504.16598179 131.27303327 504.16719264 132.67265886 C504.18020355 147.39504006 504.20383437 162.11738574 504.23145839 176.83974595 C504.25961643 191.97411087 504.27619812 207.10845734 504.28226548 222.24284738 C504.28636048 231.56468258 504.29924443 240.88641736 504.3237494 250.20822161 C504.33973532 256.62002337 504.34437165 263.03177403 504.34050413 269.44359422 C504.33860233 273.13047233 504.34129842 276.8171763 504.35761642 280.5040226 C504.57863215 333.13657839 492.20066792 380.29280887 455.1875 419.125 C434.82922229 438.8212199 409.36885317 452.30888302 383 462 C382.26491211 462.27295898 381.52982422 462.54591797 380.77246094 462.82714844 C350.64785923 473.86965083 317.93351068 478.96065152 286 481 C285.14954102 481.05639648 284.29908203 481.11279297 283.42285156 481.17089844 C205.43310958 486.11658939 120.06252847 475.05141059 58.74047852 422.27197266 C25.16371412 392.62969883 3.15173325 353.18465805 0 308 C-0.34333025 298.70675241 -0.2591965 289.40190378 -0.23213124 280.10370922 C-0.22340425 276.3357212 -0.22642337 272.56773895 -0.22793579 268.79974365 C-0.22897886 262.28913719 -0.22276317 255.77857115 -0.21146011 249.26797485 C-0.19512901 239.8550289 -0.18998937 230.44210227 -0.18748413 221.02914369 C-0.1831189 205.75314204 -0.16984177 190.47716188 -0.15087891 175.20117188 C-0.13248965 160.37174586 -0.11837106 145.54232574 -0.10986328 130.71289062 C-0.10932729 129.78778765 -0.10879129 128.86268468 -0.10823905 127.90954828 C-0.10407963 120.67344167 -0.10016598 113.43733493 -0.09632993 106.20122814 C-0.07750042 70.80079903 -0.03725489 35.40042379 0 0 Z " fill="#7fdbca" transform="translate(1237,0)"/>
<path d="M0 0 C24.1043552 -0.49167977 48.20795384 -0.86141341 72.31632233 -1.08805561 C83.51190816 -1.19611424 94.7043698 -1.34327309 105.89794922 -1.58422852 C115.66046188 -1.79427737 125.42071186 -1.92918755 135.18542147 -1.97585839 C140.35202666 -2.00312555 145.51216261 -2.06663328 150.67668152 -2.22033119 C184.59370366 -3.19132577 184.59370366 -3.19132577 192.99926758 4.56436157 C196.66396697 8.85363323 199.36728968 13.39923769 201.77049255 18.48922157 C203.5102924 22.04206865 205.73185082 24.98092781 208.125 28.125 C208.90542931 29.22084678 209.68199919 30.31946171 210.453125 31.421875 C218.23973469 42.41842363 226.36595396 53.1800358 234.46484375 63.94750977 C240.1025715 71.45115433 245.65840503 79.01488679 251.21777344 86.57666016 C254.1423075 90.55322524 257.07139564 94.52643221 260 98.5 C261.15495327 100.06770439 262.30990117 101.63541273 263.46484375 103.203125 C265.91396346 106.52707713 268.36473056 109.84980771 270.81640625 113.171875 C271.75709961 114.44708008 271.75709961 114.44708008 272.71679688 115.74804688 C273.90907674 117.36424847 275.10175681 118.98015493 276.29492188 120.59570312 C279.56994754 125.03621835 282.80477429 129.50169341 286 134 C289.37779045 132.87406985 289.85269787 132.20984612 291.86328125 129.4140625 C292.41306641 128.65802734 292.96285156 127.90199219 293.52929688 127.12304688 C294.11775391 126.29869141 294.70621094 125.47433594 295.3125 124.625 C296.57923289 122.87746339 297.84616544 121.13007148 299.11328125 119.3828125 C299.75990723 118.48594727 300.4065332 117.58908203 301.07275391 116.66503906 C304.02027277 112.58914396 307.01060475 108.54522242 310 104.5 C311.1643243 102.9207659 312.32838577 101.34133799 313.4921875 99.76171875 C314.06936523 98.97845215 314.64654297 98.19518555 315.24121094 97.38818359 C317.01877272 94.97450933 318.79472586 92.55965879 320.5703125 90.14453125 C326.49809725 82.08482392 332.45167967 74.04675097 338.46582031 66.05126953 C344.70534748 57.74631473 350.84771643 49.36965513 357 41 C359.37413334 37.77019483 361.74899316 34.54092721 364.125 31.3125 C364.70024414 30.53068359 365.27548828 29.74886719 365.86816406 28.94335938 C370.2366144 23.01492479 374.6456775 17.11784917 379.09423828 11.24926758 C379.55040527 10.64493896 380.00657227 10.04061035 380.4765625 9.41796875 C380.86924316 8.90000732 381.26192383 8.3820459 381.66650391 7.84838867 C383.16073034 5.86529512 383.16073034 5.86529512 384.6333046 2.92957115 C387 0 387 0 390.25646591 -0.73828697 C391.55803761 -0.73275621 392.8596093 -0.72722546 394.20062256 -0.7215271 C394.92682903 -0.72665365 395.65303549 -0.7317802 396.40124822 -0.7370621 C398.83578408 -0.74694926 401.26784113 -0.71394539 403.70214844 -0.68115234 C405.44655804 -0.67945998 407.19097192 -0.68040973 408.93537903 -0.68380737 C413.67296788 -0.68553094 418.40964777 -0.65022271 423.14702511 -0.60836363 C428.09709519 -0.57088969 433.04718545 -0.56733391 437.99737549 -0.56021118 C447.3720501 -0.54155251 456.74630556 -0.49230163 466.12079549 -0.43211424 C476.7929355 -0.36508091 487.46509539 -0.3320681 498.13739347 -0.30194163 C520.09182972 -0.23920351 542.04588847 -0.13364859 564 0 C562.1007799 4.0610633 559.43076871 7.20763128 556.5 10.5625 C555.69695435 11.49122925 555.69695435 11.49122925 554.87768555 12.4387207 C550.78285117 17.15503283 546.57979778 21.76285934 542.35546875 26.36328125 C540.02448261 28.9725941 537.81672813 31.6481282 535.625 34.375 C531.75845816 39.1706049 527.65148017 43.66878667 523.4440918 48.16137695 C519.52107276 52.37411123 515.88096281 56.76404453 512.27734375 61.25390625 C509.33922549 64.79678299 506.21768822 68.15441772 503.08349609 71.52197266 C500.11269934 74.73316873 497.30031679 78.02636841 494.5625 81.4375 C490.71889943 86.21621628 486.63039836 90.69157687 482.44165039 95.16381836 C479.32446055 98.51099327 476.36426202 101.93005023 473.5 105.5 C469.68005989 110.26108478 465.61061181 114.71273025 461.44140625 119.1640625 C458.32431446 122.51116869 455.36418887 125.93014141 452.5 129.5 C448.68005989 134.26108478 444.61061181 138.71273025 440.44140625 143.1640625 C437.32431446 146.51116869 434.36418887 149.93014141 431.5 153.5 C428.15698041 157.6666621 424.64884863 161.60419812 421 165.5 C416.54125556 170.26088994 412.3620217 175.1646782 408.27734375 180.25390625 C405.78173531 183.26319052 403.16234857 186.13938654 400.5 189 C396.24344166 193.57398165 392.26530043 198.30538875 388.34765625 203.17578125 C384.09420079 208.29266694 379.53985742 213.13768541 375 218 C376.29155185 220.7349848 377.71287769 223.10899635 379.546875 225.51171875 C380.30895264 226.51174927 380.30895264 226.51174927 381.08642578 227.53198242 C381.63540527 228.24330322 382.18438477 228.95462402 382.75 229.6875 C383.61020752 230.80765503 383.61020752 230.80765503 384.48779297 231.95043945 C389.17120694 238.01069334 394.0085696 243.93390034 398.90063477 249.82617188 C404.39731346 256.45129763 409.71234927 263.20774913 415 270 C416.78909124 272.29368987 418.58082192 274.58528702 420.375 276.875 C420.82528564 277.44976074 421.27557129 278.02452148 421.73950195 278.61669922 C425.23211103 283.0589287 428.79637151 287.43945123 432.375 291.8125 C436.84159669 297.2729954 441.18067817 302.81213709 445.4375 308.4375 C450.43529277 315.03815846 455.61457422 321.45995264 460.90332031 327.82910156 C466.39867805 334.45360036 471.71315932 341.20878968 477 348 C478.78909124 350.29368987 480.58082192 352.58528702 482.375 354.875 C482.82528564 355.44976074 483.27557129 356.02452148 483.73950195 356.61669922 C487.23211103 361.0589287 490.79637151 365.43945123 494.375 369.8125 C498.84159669 375.2729954 503.18067817 380.81213709 507.4375 386.4375 C512.43529277 393.03815846 517.61457422 399.45995264 522.90332031 405.82910156 C528.39867805 412.45360036 533.71315932 419.20878968 539 426 C546.39896373 435.48578126 553.92359016 444.85971626 561.52246094 454.18603516 C563.6239622 456.76603422 565.72209022 459.34849425 567.8125 461.9375 C568.43769531 462.70964844 569.06289062 463.48179687 569.70703125 464.27734375 C571 466 571 466 571 467 C545.8266704 467.23359436 520.6535032 467.40993998 495.47930813 467.51812172 C483.79044302 467.56968762 472.10225126 467.63998954 460.41381836 467.75439453 C450.22621195 467.85406208 440.03909316 467.9185808 429.85101277 467.94088495 C424.45610096 467.95392354 419.06258411 467.98456457 413.66811943 468.05730057 C408.58943856 468.12522336 403.51272574 468.14610822 398.4336338 468.13107681 C396.57073642 468.13382611 394.70777271 468.15369663 392.84526825 468.19205475 C378.77478171 468.46760042 378.77478171 468.46760042 374.40081978 464.85068893 C372.58105169 462.29657045 371.27878241 459.85584694 370 457 C369.08335103 455.53279985 368.14795992 454.07691171 367.18359375 452.640625 C366.26585595 451.17857033 365.35056902 449.71497491 364.4375 448.25 C363.3923148 446.58439206 362.34672533 444.91903775 361.30078125 443.25390625 C360.76146973 442.3942627 360.2221582 441.53461914 359.66650391 440.64892578 C356.8366172 436.1507906 353.98056778 431.66935962 351.125 427.1875 C349.93749805 425.32291791 348.74999806 423.45833457 347.5625 421.59375 C346.97210937 420.66691406 346.38171875 419.74007813 345.7734375 418.78515625 C344.03529282 416.05542684 342.29861894 413.32476815 340.5625 410.59375 C334.39044675 400.8858991 328.20410687 391.18740163 322 381.5 C315.21971821 370.91293014 308.46257897 360.31135854 301.71777344 349.70166016 C299.98174151 346.97128362 298.2449296 344.24140499 296.5078125 341.51171875 C295.92821777 340.60091553 295.34862305 339.6901123 294.75146484 338.75170898 C293.59323249 336.93202166 292.43470867 335.11251982 291.27587891 333.29321289 C288.20193275 328.46613648 285.13528107 323.63460568 282.078125 318.796875 C281.43746094 317.78496094 280.79679687 316.77304688 280.13671875 315.73046875 C278.90283219 313.78128563 277.67097614 311.83081526 276.44140625 309.87890625 C275.88839844 309.00621094 275.33539062 308.13351562 274.765625 307.234375 C274.27868164 306.46319336 273.79173828 305.69201172 273.29003906 304.89746094 C272.00536246 302.88056573 272.00536246 302.88056573 270 301 C269.42241943 301.86890869 268.84483887 302.73781738 268.24975586 303.63305664 C261.39801683 313.93105329 254.48721564 324.18848069 247.5625 334.4375 C246.37755717 336.19202555 245.19266241 337.94658357 244.0078125 339.70117188 C241.55503483 343.33329527 239.10205395 346.96528129 236.64892578 350.59716797 C231.48718506 358.2395303 226.32799009 365.8836107 221.16873169 373.52764893 C219.49334504 376.00985982 217.81785699 378.49200224 216.14233398 380.97412109 C211.02292763 388.55804186 205.90383538 396.14217392 200.78607178 403.72720337 C198.45705219 407.17899055 196.12782391 410.63063688 193.79858398 414.08227539 C192.72475149 415.67367791 191.65101274 417.26514368 190.57739258 418.85668945 C190.08070068 419.59298584 189.58400879 420.32928223 189.07226562 421.08789062 C188.60097323 421.7909433 188.12968084 422.49399597 187.64410686 423.21835327 C186.60383088 424.75086504 185.54775615 426.27285923 184.47102833 427.77998352 C181.31613371 432.262598 178.56297781 436.75381783 176.15046471 441.66646153 C164.56777143 465.00790021 164.56777143 465.00790021 153.84204102 468.73736382 C142.99084877 471.52058482 131.41026631 470.66502511 120.33120704 470.14321208 C115.4559799 469.94720697 110.57992871 469.9310491 105.70137024 469.89442444 C96.49542578 469.79867476 87.3011175 469.54526047 78.10026342 469.23259026 C67.61312004 468.88407536 57.12536997 468.71516727 46.63386285 468.56003177 C25.08278522 468.23740172 3.54212953 467.69345436 -18 467 C-17.04422086 465.72096565 -16.08779753 464.44241268 -15.13110352 463.1640625 C-14.59856461 462.4520166 -14.0660257 461.7399707 -13.51734924 461.00634766 C-11.71396269 458.62178101 -9.84319562 456.30350484 -7.9375 454 C-7.16792969 453.06542969 -6.39835937 452.13085938 -5.60546875 451.16796875 C-5.18958496 450.66313965 -4.77370117 450.15831055 -4.34521484 449.63818359 C-1.80095615 446.53982138 0.72335322 443.42522658 3.25 440.3125 C4.36978971 438.93359216 5.4895814 437.55468593 6.609375 436.17578125 C7.17076172 435.48436035 7.73214844 434.79293945 8.31054688 434.08056641 C10.50121526 431.38275196 12.69266052 428.68556938 14.88427734 425.98852539 C15.96289947 424.66102808 17.04134954 423.33339096 18.11962891 422.00561523 C20.84972797 418.64413455 23.58247272 415.28486755 26.3203125 411.9296875 C31.48017636 405.60113653 36.60650853 399.2539311 41.625 392.8125 C45.65982038 387.63627425 49.83021471 382.59741809 54.09082031 377.60595703 C57.40457959 373.72016568 60.61960376 369.77016858 63.79296875 365.76953125 C66.56873313 362.28631542 69.37691565 358.83014172 72.1875 355.375 C72.7429248 354.69203857 73.29834961 354.00907715 73.87060547 353.30541992 C75.01177787 351.90242221 76.1530549 350.49950959 77.29443359 349.09667969 C80.57151521 345.06811156 83.84567444 341.03716738 87.11938477 337.00585938 C89.84960243 333.64432765 92.58240038 330.2849562 95.3203125 326.9296875 C100.48017636 320.60113653 105.60650853 314.2539311 110.625 307.8125 C114.65982038 302.63627425 118.83021471 297.59741809 123.09082031 292.60595703 C126.40457959 288.72016568 129.61960376 284.77016858 132.79296875 280.76953125 C135.56873411 277.28631419 138.37700787 273.83021803 141.1875 270.375 C141.74147461 269.69348877 142.29544922 269.01197754 142.86621094 268.30981445 C145.68780462 264.83954595 148.51219949 261.37158998 151.33984375 257.90625 C157.04318732 250.91026113 162.68408327 243.87509349 168.23413086 236.75683594 C171.67320167 232.36642359 175.24699427 228.12446363 179 224 C175.5868202 218.5092325 171.49579908 213.64372587 167.37744141 208.67041016 C164.81717833 205.56560336 162.28532611 202.4376744 159.75 199.3125 C156.39197136 195.17514878 153.03299672 191.0386356 149.6640625 186.91015625 C144.50922008 180.58826605 139.3883678 174.24735467 134.375 167.8125 C130.34017962 162.63627425 126.16978529 157.59741809 121.90917969 152.60595703 C118.59777918 148.72293164 115.38431482 144.77645142 112.21484375 140.77734375 C109.3990022 137.24636784 106.54197784 133.74975881 103.6875 130.25 C99.52735221 125.1463259 95.42032482 120.00757948 91.375 114.8125 C87.34032895 109.63616213 83.16977965 104.59741148 78.90917969 99.60595703 C75.59777918 95.72293164 72.38431482 91.77645142 69.21484375 87.77734375 C66.3990022 84.24636784 63.54197784 80.74975881 60.6875 77.25 C56.52735335 72.14632729 52.42027211 67.00761935 48.375 61.8125 C44.4113986 56.72636771 40.31009715 51.78365884 36.11791992 46.88500977 C32.40258745 42.52404706 28.86045351 38.04520838 25.34472656 33.52270508 C21.56266363 28.67467855 17.67032583 23.9241498 13.75 19.1875 C5.90483289 9.69216813 5.90483289 9.69216813 2.625 5.5625 C2.10164063 4.90378906 1.57828125 4.24507812 1.0390625 3.56640625 C0 2 0 2 0 0 Z " fill="#7fdbca" transform="translate(1777,0)"/>
<path d="M0 0 C49.17 0 98.34 0 149 0 C149 122.1 149 244.2 149 370 C225.56 370 302.12 370 381 370 C381 402.01 381 434.02 381 467 C255.27 467 129.54 467 0 467 C0 312.89 0 158.78 0 0 Z " fill="#7fdbca" transform="translate(52,0)"/>
<path d="M0 0 C46.86 0 93.72 0 142 0 C142 108.9 142 217.8 142 330 C95.14 330 48.28 330 0 330 C0 221.1 0 112.2 0 0 Z " fill="#7fdbca" transform="translate(468,136)"/>
<path d="M0 0 C46.86 0 93.72 0 142 0 C142 27.06 142 54.12 142 82 C95.14 82 48.28 82 0 82 C0 54.94 0 27.88 0 0 Z " fill="#7fdbca" transform="translate(468,0)"/>
</svg>
