<?xml version="1.0" standalone="no"?>
<!DOCTYPE svg PUBLIC "-//W3C//DTD SVG 20010904//EN"
 "http://www.w3.org/TR/2001/REC-SVG-20010904/DTD/svg10.dtd">
<svg version="1.0" xmlns="http://www.w3.org/2000/svg"
 width="1200.000000pt" height="240.000000pt" viewBox="0 0 1200.000000 240.000000"
 preserveAspectRatio="xMidYMid meet" fill="#7fdbca">

<g transform="translate(0.000000,218.000000) scale(0.100000,-0.100000)"
fill="#7fdbca" stroke="none">
<path d="M992 1228 l3 -952 210 -67 210 -67 5 826 c4 635 8 832 17 849 27 45
85 36 127 -20 20 -27 21 -41 24 -390 2 -268 6 -363 15 -369 56 -37 217 -51
280 -24 128 53 198 223 183 442 -23 332 -156 462 -621 604 -142 44 -427 120
-447 120 -5 0 -7 -428 -6 -952z"/>
<path d="M3520 1071 l0 -611 110 0 110 0 0 545 0 545 133 0 c113 0 137 -3 164
-20 41 -25 59 -60 74 -145 21 -121 -3 -249 -56 -302 -33 -33 -34 -33 -129 -33
l-96 0 0 -65 0 -65 138 0 c128 0 142 2 190 26 129 64 195 232 171 431 -16 129
-75 229 -163 276 -39 21 -54 22 -343 25 l-303 3 0 -610z"/>
<path d="M4470 1070 l0 -610 105 0 105 0 0 610 0 610 -105 0 -105 0 0 -610z"/>
<path d="M6889 1664 c-85 -26 -140 -71 -179 -148 -34 -67 -35 -73 -35 -180 0
-92 4 -119 21 -157 53 -113 135 -164 290 -180 112 -11 138 -24 169 -85 28 -56
28 -195 0 -243 -42 -71 -56 -75 -258 -81 l-182 -5 -3 -62 -3 -63 225 0 c201 0
231 2 279 20 100 38 164 133 176 264 13 153 -15 275 -82 344 -52 55 -99 73
-224 86 -126 14 -155 28 -185 87 -24 47 -24 151 1 206 33 72 50 78 253 81
l178 4 0 64 0 64 -197 -1 c-141 0 -211 -4 -244 -15z"/>
<path d="M9600 1590 l0 -90 110 0 110 0 0 90 0 90 -110 0 -110 0 0 -90z"/>
<path d="M7550 1116 c0 -485 2 -499 68 -577 54 -63 98 -79 220 -79 l102 0 0
65 0 65 -59 0 c-43 0 -65 5 -82 19 l-24 19 -3 316 -3 316 116 0 115 0 0 65 0
65 -115 0 -115 0 0 80 0 80 -110 0 -110 0 0 -434z"/>
<path d="M9020 1130 c0 -258 4 -438 11 -469 14 -66 58 -134 110 -168 39 -26
51 -28 161 -31 l118 -4 0 66 0 66 -61 0 c-33 0 -69 4 -79 10 -35 19 -40 64
-40 366 l0 294 115 0 115 0 0 65 0 65 -115 0 -115 0 0 80 0 80 -110 0 -110 0
0 -420z"/>
<path d="M5105 1376 c-153 -38 -231 -137 -256 -327 -6 -43 -9 -149 -7 -236 3
-140 6 -164 27 -211 25 -56 75 -106 127 -128 23 -10 76 -14 164 -14 l130 0 0
65 0 65 -88 0 c-82 0 -90 2 -113 26 -23 25 -24 30 -27 217 -4 267 18 375 85
406 15 8 74 16 131 19 l102 5 0 -402 0 -401 110 0 110 0 0 465 0 465 -222 -1
c-141 0 -241 -5 -273 -13z"/>
<path d="M5720 1383 c0 -4 70 -213 156 -463 l155 -455 -86 -220 c-47 -121 -85
-226 -85 -233 0 -10 22 -12 91 -10 l91 3 274 685 c151 377 274 689 274 693 0
4 -46 6 -102 5 l-102 -3 -115 -297 c-63 -164 -117 -295 -120 -292 -3 3 -51
137 -106 297 l-100 292 -112 3 c-62 1 -113 -1 -113 -5z"/>
<path d="M8363 1380 c-100 -20 -181 -79 -223 -160 -42 -82 -52 -160 -48 -380
l3 -205 31 -55 c22 -38 46 -64 79 -85 47 -29 53 -30 187 -33 l138 -4 0 66 0
66 -85 0 c-77 0 -88 2 -109 24 -33 32 -42 135 -29 346 7 131 14 175 30 212 32
71 57 82 182 83 l106 0 3 -397 2 -398 110 0 110 0 -2 463 -3 462 -220 1 c-121
1 -239 -2 -262 -6z"/>
<path d="M9607 1383 c-4 -3 -7 -213 -7 -465 l0 -458 110 0 110 0 0 465 0 465
-103 0 c-57 0 -107 -3 -110 -7z"/>
<path d="M10240 1377 c-166 -39 -249 -147 -272 -356 -13 -109 1 -268 29 -344
30 -81 81 -138 157 -177 69 -35 69 -35 205 -35 126 0 140 2 191 26 30 14 69
38 86 52 38 32 88 126 102 192 30 139 22 332 -19 441 -30 80 -105 154 -184
184 -74 27 -216 35 -295 17z m213 -144 c65 -33 101 -223 79 -419 -17 -155 -52
-209 -141 -221 -96 -13 -161 26 -186 110 -9 29 -18 102 -21 162 -10 183 23
336 78 366 53 29 136 30 191 2z"/>
<path d="M10900 926 l0 -466 105 0 105 0 2 398 3 397 100 0 c122 0 159 -13
186 -66 30 -61 39 -155 39 -451 l0 -278 111 0 111 0 -5 303 c-5 327 -11 372
-64 470 -33 60 -81 101 -153 129 -50 20 -77 22 -297 26 l-243 4 0 -466z"/>
<path d="M539 900 c-196 -70 -384 -142 -418 -160 -211 -113 -142 -241 171
-320 152 -38 315 -52 461 -39 61 5 120 12 130 15 15 5 17 19 17 115 0 60 -2
109 -4 109 -2 0 -51 -18 -110 -40 -132 -49 -210 -64 -287 -57 -58 5 -109 27
-109 47 0 20 65 49 278 125 120 42 221 80 225 84 4 4 6 62 5 128 l-3 120 -356
-127z"/>
<path d="M1779 905 c-84 -13 -180 -35 -246 -56 l-33 -11 0 -129 c0 -71 1 -129
3 -129 2 0 111 38 242 85 131 47 268 90 304 96 80 13 163 4 193 -21 19 -15 21
-20 8 -34 -21 -27 -34 -32 -398 -161 -188 -68 -345 -125 -348 -127 -2 -3 -3
-60 -2 -126 l3 -120 481 172 c264 95 504 185 533 201 70 39 121 96 121 137 0
70 -75 125 -245 177 -190 59 -422 76 -616 46z"/>
<path d="M11835 627 c-27 -27 -35 -43 -35 -72 0 -71 86 -120 151 -85 24 13 49
61 49 94 0 38 -48 86 -92 93 -33 5 -41 2 -73 -30z m120 -12 c62 -62 -2 -162
-85 -134 -36 13 -50 36 -50 83 0 68 86 101 135 51z"/>
<path d="M11860 559 c0 -37 4 -58 10 -54 6 3 10 15 10 26 0 29 38 25 46 -6 10
-42 20 -28 18 27 -3 55 -13 68 -56 68 -27 0 -28 -1 -28 -61z m65 26 c0 -5 -10
-11 -22 -13 -16 -2 -23 2 -23 13 0 11 7 15 23 13 12 -2 22 -7 22 -13z"/>
<path d="M2439 332 c-96 -48 -62 -184 47 -184 30 0 44 7 66 31 38 42 38 90 1
130 -36 38 -70 45 -114 23z m96 -27 c69 -68 -8 -175 -93 -131 -32 17 -42 34
-42 72 0 74 84 111 135 59z"/>
<path d="M2440 246 c0 -31 5 -56 10 -56 6 0 10 12 10 26 0 21 4 25 23 22 14
-2 23 -11 25 -25 6 -45 20 -22 19 30 l-2 52 -43 3 -42 3 0 -55z m66 33 c7 -12
-12 -29 -33 -29 -7 0 -13 9 -13 20 0 22 34 28 46 9z"/>
</g>
</svg>
