<?xml version="1.0" encoding="utf-8"?>
<!-- Generator: Adobe Illustrator 16.0.0, SVG Export Plug-In . SVG Version: 6.00 Build 0)  -->
<!DOCTYPE svg PUBLIC "-//W3C//DTD SVG 1.1//EN" "http://www.w3.org/Graphics/SVG/1.1/DTD/svg11.dtd">
<svg version="1.1" xmlns="http://www.w3.org/2000/svg" xmlns:xlink="http://www.w3.org/1999/xlink" x="0px" y="0px"
	 width="671.473px" height="696.17px" viewBox="0 0 671.473 696.17" enable-background="new 0 0 671.473 696.17"
	 xml:space="preserve">
<g id="main">
	<path fill="#C3E88D" d="M440.29,476.511c23.622-8.473,45.595-20.71,65.358-36.412c-0.397-0.095-0.795-0.19-1.181-0.283
		c-1.896-0.458-3.547-0.868-4.979-1.237c-18.328,14.06-38.525,25.134-60.145,32.972c-0.021-0.105-0.041-0.205-0.063-0.31
		c0.206,1.04,0.411,2.095,0.616,3.172C440.03,475.114,440.161,475.813,440.29,476.511z"/>
	<path fill="#C3E88D" d="M430.415,661.093c2.012-9.428,9.891-35.278,11.499-41.331c-0.94,0.56-1.479,0.882-1.525,0.909l-4.641,2.847
		l0,0c-2.603,9.873-7.571,28.497-9.236,36.304c-0.146,0.684-0.314,1.366-0.402,1.834c-0.306,0.036-0.501,0.06-0.866,0.103
		c1.487-0.175,2.495-0.297,2.887-0.351L430.415,661.093"/>
	<path fill="#C3E88D" d="M153.819,695.952l0.94-3.397l0.602-1.595l0,0c-5.95,0.077-36.374,0.44-47.125-0.021
		c-8.673-0.369-22.379-2.395-34.838-6.967c-10.936-4.015-17.125-7.3-23.447-11.003c0.023-0.07,0.049-0.146,0.073-0.218
		c-0.25,0.75-0.492,1.471-0.715,2.138l-0.957,2.853l-2.629-1.463c-0.008-0.005-0.023-0.013-0.033-0.019
		c6.938,4.115,13.688,7.892,25.986,12.405c12.998,4.771,27.299,6.883,36.348,7.27c4.141,0.177,10.994,0.235,18.287,0.235"/>
	<path fill="#C3E88D" d="M430.982,663.665l-0.567-2.571l-2.285,0.314c-0.392,0.054-1.399,0.176-2.887,0.351
		c-0.008,0.001-0.016,0.002-0.023,0.003c-2.189,0.257-5.421,0.629-9.31,1.072c-0.102,0.012-0.202,0.022-0.304,0.034
		c-2.589,0.295-5.456,0.62-8.495,0.963c-0.017,0.002-0.034,0.004-0.051,0.006c-15.537,1.755-35.465,3.972-44.859,4.968
		c-0.042,0.004-0.082,0.008-0.124,0.013c-0.437,0.046-0.855,0.09-1.243,0.131c-6.13,0.643-18.754,1.56-31.687,2.367
		c-14.699,0.921-29.819,1.702-36.254,1.754c-0.106,0.001-0.208,0.002-0.309,0.002c-0.117,0.001-0.251,0.003-0.362,0.003
		c-0.728,0-1.311-0.011-1.732-0.036c-4.917-0.298-12.027-2.522-18.063-5.004c-1.393-0.573-2.729-1.159-3.967-1.739
		c-3.363-1.575-12.709-6.892-27.778-15.8l-1.064-0.629c-0.129-0.076-0.32-0.189-0.564-0.337c-0.245-0.146-0.543-0.326-0.89-0.536
		c-4.847-2.934-18.991-11.63-24.004-15.311c-0.535-0.393-1.209-0.894-1.998-1.481c-0.525-0.392-1.101-0.822-1.718-1.286
		c-0.309-0.232-0.628-0.472-0.957-0.72c-8.547-6.433-23.508-17.876-26.961-20.842c-2.634-2.262-15.227-14.876-16.001-15.652
		l-16.865-18.354l2.048,9.127c0.827,3.685,8.111,36.093,9.195,39.417c0.026,0.079,0.056,0.175,0.089,0.284
		c0.993,3.29,5.115,19.787,7.404,29.054c0.076,0.309,0.151,0.609,0.223,0.901l0.032,0.129c0.003,0.029,0.006,0.072,0.007,0.129
		c0.01,0.399-0.055,1.499-0.814,3.51l-13.086,34.657l-0.94,3.397l2.175-0.002l0.057,0.002l1.981,0.058h280.094L430.982,663.665z
		 M172.523,659.663c1.455-3.856,1.199-5.939,0.929-6.821c-0.496-2.01-6.721-27.211-7.794-30.502
		c-0.655-2.009-4.324-17.987-7.006-29.818l4.227,4.6l0.07,0.074c0.549,0.55,13.471,13.504,16.32,15.951
		c0.81,0.695,2.237,1.846,4.059,3.283c7.896,6.23,23.208,17.858,27.873,21.284c5.872,4.311,23.782,15.227,25.882,16.462l1.056,0.624
		c15.206,8.989,24.694,14.38,28.202,16.022c6.52,3.054,16.677,6.772,23.847,7.206c0.119,0.007,0.25,0.014,0.39,0.02
		c0.511,0.02,1.167,0.027,1.943,0.024c0.175-0.001,0.358-0.002,0.546-0.004c0.222-0.002,0.452-0.005,0.691-0.008
		c0.233-0.004,0.471-0.008,0.72-0.013c0.146-0.003,0.291-0.006,0.442-0.009c0.404-0.009,0.824-0.02,1.265-0.031
		c0.053-0.002,0.104-0.003,0.156-0.005c3.151-0.089,7.199-0.258,11.749-0.48c0.135-0.007,0.269-0.014,0.405-0.02
		c0.488-0.024,0.988-0.05,1.487-0.075c16.699-0.85,39.012-2.346,49.172-3.291c0.122-0.012,0.243-0.022,0.362-0.034
		c0.238-0.022,0.469-0.045,0.693-0.066c0.4-0.039,0.79-0.078,1.146-0.115c0.362-0.038,0.754-0.079,1.17-0.123
		c0.017-0.002,0.032-0.004,0.049-0.006c11.623-1.231,43.517-4.793,58.498-6.515c0.02-0.003,0.039-0.005,0.058-0.007
		c0.483-0.056,0.942-0.108,1.389-0.16c0.103-0.012,0.204-0.023,0.305-0.035c0.402-0.047,0.787-0.091,1.156-0.134
		c0.147-0.018,0.289-0.034,0.431-0.051c0.257-0.029,0.505-0.059,0.743-0.086c0.182-0.021,0.357-0.042,0.528-0.063
		c0.179-0.021,0.35-0.041,0.516-0.061c0.104-0.013,0.224-0.026,0.322-0.038l5.382,24.366l-271.215,0.001L172.523,659.663z"/>
	<path fill="#C3E88D" d="M189.029,324.458c-0.103-0.011-0.205-0.023-0.308-0.034l4.933-18.987c-0.804-0.203-1.609-0.407-2.407-0.608
		c-0.861-0.217-1.665-0.42-2.441-0.615l-5.117,19.694l2.157,0.218C186.908,324.234,187.968,324.345,189.029,324.458z"/>
	<path fill="#C3E88D" d="M581.707,460.956c0.343-1.935,0.635-3.572,0.865-4.852l-4.929-0.911c-0.261,1.447-0.62,3.536-1.013,5.754
		l-2.214-0.001l4.314,0.002C579.8,460.949,580.794,460.952,581.707,460.956z"/>
	<path fill="#C3E88D" d="M516.801,459.013l2.471-15.771c-1.646-0.369-3.282-0.739-4.889-1.106l-2.585,16.508
		c0.75,0.059,1.514,0.117,2.298,0.176C514.984,458.885,515.888,458.95,516.801,459.013z"/>
	<path fill="#C3E88D" d="M148.68,327.965c-0.276,0.089-0.545,0.166-0.823,0.257c-7.05-22.102-10.622-45.14-10.622-68.522
		c0-124.229,101.068-225.298,225.298-225.298c88.876,0,169.572,52.386,205.807,133.528c-0.314,1.616-0.633,3.254-0.95,4.89
		c0.368-1.897,0.737-3.793,1.101-5.663c0.502-2.582,0.991-5.097,1.475-7.58C531.63,80.245,451.054,29.403,362.533,29.403
		c-61.515,0-119.348,23.955-162.846,67.453s-67.453,101.33-67.453,162.845c0,23.95,3.679,47.547,10.916,70.184
		c0.766-0.286,1.526-0.565,2.28-0.832C146.53,328.665,147.606,328.312,148.68,327.965z"/>
	<path fill="#C3E88D" d="M417.315,419.653l-0.12,0.085l-1.33,0.917l0.021-0.014c0.004,0.007,0.009,0.016,0.013,0.022
		c0.161,0.284,0.338,0.6,0.521,0.93c0.037,0.065,0.071,0.127,0.108,0.194c0.192,0.346,0.396,0.714,0.608,1.104
		c0.034,0.063,0.069,0.129,0.104,0.193c0.209,0.382,0.426,0.783,0.651,1.204c0.021,0.041,0.041,0.077,0.063,0.117
		c0.234,0.439,0.479,0.904,0.73,1.383c0.053,0.101,0.104,0.2,0.158,0.303c0.253,0.486,0.513,0.988,0.778,1.51
		c0.033,0.065,0.067,0.132,0.101,0.197c0.249,0.49,0.503,0.995,0.76,1.513c0.047,0.095,0.094,0.188,0.141,0.283
		c0.274,0.552,0.552,1.121,0.832,1.702c0.061,0.125,0.12,0.25,0.181,0.376c0.29,0.604,0.582,1.218,0.875,1.848
		c0.009,0.019,0.018,0.038,0.026,0.057c0.284,0.611,0.57,1.237,0.855,1.871c0.063,0.139,0.125,0.275,0.188,0.415
		c0.285,0.636,0.569,1.282,0.853,1.938c0.056,0.129,0.111,0.26,0.167,0.39c0.266,0.619,0.53,1.245,0.792,1.878
		c0.036,0.087,0.072,0.173,0.108,0.26c0.28,0.683,0.557,1.373,0.831,2.069c0.062,0.157,0.122,0.313,0.184,0.471
		c0.273,0.702,0.543,1.408,0.806,2.121c0.035,0.094,0.068,0.188,0.103,0.283c0.242,0.66,0.479,1.325,0.71,1.993
		c0.047,0.133,0.094,0.266,0.14,0.4c0.245,0.716,0.482,1.435,0.712,2.155c0.049,0.153,0.097,0.306,0.145,0.459
		c0.234,0.747,0.464,1.495,0.679,2.244c1.419,4.938,2.967,11.599,4.515,19.407c0.222,1.115,0.442,2.254,0.663,3.415
		c2.292,12.059,4.039,23.812,4.633,29.698c0.761-0.236,1.342-0.434,1.697-0.582l0.724,1.735l0.146-0.021l-0.377-1.705
		c0.045-0.01,1.084-0.24,2.71-0.603c-0.632-5.872-2.191-16.373-4.229-27.358c-0.129-0.698-0.26-1.397-0.393-2.099
		c-0.205-1.077-0.41-2.132-0.616-3.172c-0.081-0.414-0.163-0.815-0.245-1.224c-0.135-0.673-0.27-1.344-0.405-2
		c-0.082-0.397-0.163-0.786-0.245-1.178c-0.134-0.639-0.268-1.273-0.401-1.894c-0.083-0.389-0.166-0.771-0.25-1.152
		c-0.131-0.6-0.262-1.191-0.393-1.772c-0.084-0.373-0.168-0.742-0.251-1.106c-0.13-0.568-0.26-1.123-0.39-1.671
		c-0.082-0.351-0.165-0.701-0.247-1.043c-0.131-0.546-0.262-1.073-0.392-1.598c-0.078-0.313-0.156-0.632-0.234-0.938
		c-0.142-0.558-0.281-1.091-0.421-1.62c-0.064-0.242-0.129-0.496-0.192-0.732c-0.203-0.753-0.404-1.479-0.603-2.17
		c-0.232-0.81-0.479-1.617-0.732-2.423c-0.051-0.162-0.102-0.324-0.153-0.485c-0.247-0.775-0.502-1.547-0.765-2.314
		c-0.051-0.146-0.103-0.292-0.152-0.438c-0.249-0.718-0.503-1.431-0.763-2.139c-0.036-0.096-0.07-0.193-0.105-0.289
		c-0.28-0.757-0.566-1.506-0.856-2.249c-0.068-0.176-0.137-0.352-0.206-0.526c-0.288-0.729-0.578-1.453-0.873-2.167
		c-0.049-0.119-0.1-0.236-0.148-0.355c-0.27-0.647-0.54-1.286-0.813-1.918c-0.061-0.141-0.121-0.284-0.183-0.425
		c-0.296-0.681-0.593-1.351-0.89-2.01c-0.076-0.17-0.152-0.338-0.229-0.506c-0.295-0.649-0.589-1.292-0.882-1.917
		c-0.037-0.08-0.074-0.157-0.112-0.237c-0.275-0.585-0.548-1.155-0.818-1.717c-0.076-0.156-0.151-0.313-0.227-0.468
		c-0.281-0.577-0.559-1.141-0.832-1.688c-0.075-0.15-0.149-0.297-0.224-0.446c-0.241-0.479-0.479-0.947-0.711-1.402
		c-0.05-0.096-0.101-0.196-0.149-0.292c-0.262-0.507-0.515-0.992-0.763-1.464c-0.077-0.146-0.153-0.291-0.229-0.433
		c-0.238-0.45-0.471-0.887-0.694-1.301c-0.059-0.108-0.114-0.21-0.171-0.315c-0.191-0.352-0.375-0.688-0.553-1.011
		c-0.053-0.096-0.106-0.195-0.158-0.288c-0.204-0.37-0.396-0.714-0.58-1.039c-0.049-0.088-0.096-0.172-0.144-0.255
		c-0.179-0.318-0.351-0.62-0.505-0.89c-0.005-0.008-0.009-0.015-0.013-0.022l-1.915,1.401
		C417.938,419.207,417.68,419.395,417.315,419.653z"/>
	<path fill="#C3E88D" d="M290.56,465.474c6.231-3.788,8.375-5.263,8.463-5.324l0.067-0.047l1.139-0.787l-0.024-0.253l-0.115-1.206
		c-0.395-4.148-4.379-16.575-6.075-21.726c-2.725-8.282-5.653-16.432-7.831-21.801c-0.758-1.868-1.418-3.438-2.035-4.834
		c-0.037-0.084-0.076-0.173-0.113-0.256c-0.012-0.027-0.024-0.053-0.036-0.08c-0.376-0.845-0.737-1.627-1.094-2.37
		c-1.441-3.005-2.912-5.58-4.627-8.106c-0.671-0.987-1.397-1.987-2.184-3.011c-2.612-3.398-5.941-7.087-10.527-11.68
		c-0.409-0.41-0.828-0.826-1.257-1.251c-0.012-0.013-0.026-0.025-0.038-0.037c-0.528-0.521-1.065-1.05-1.627-1.597
		c-0.604-0.588-1.207-1.158-1.812-1.723c-2.201-2.055-4.425-3.973-6.682-5.756c-15.796-12.481-33.188-18.396-55.279-18.984
		c-0.001,0-0.002,0-0.003,0c0,0-0.001,0-0.002,0c-3.249-0.087-6.577-0.063-10.077,0.061c-26.124,0.928-49.545,17.175-58.402,24.116
		c-2.417,1.895-5.223,4.368-8.178,7.517c-0.845,0.899-1.701,1.854-2.564,2.865c-0.863,1.012-1.733,2.081-2.604,3.209
		c-2.857,3.702-5.724,8.044-8.403,13.103c-5.895,11.129-10.88,25.728-12.848,44.62c-0.124,1.189-0.215,2.409-0.281,3.763
		l-0.008,0.128c-0.055,1.186-0.079,2.441-0.073,3.733l0,0.139c0.008,1.228,0.048,2.51,0.122,3.862
		c0.062,1.138,0.154,2.308,0.266,3.48c0.013,0.134,0.022,0.268,0.036,0.402c0.471,4.708,1.31,9.429,2.419,14.088
		c7.828,32.877,29.163,62.739,30.192,64.166l1.237,1.715l15.947-7.872l1.762-0.87C188.616,516.52,285.049,468.825,290.56,465.474z
		 M145.198,532.388l-13.878,6.851c-5.399-7.951-27.272-41.885-30.49-74.093c-0.124-1.233-0.219-2.464-0.288-3.705
		c-0.017-0.307-0.026-0.605-0.039-0.908c-0.039-0.908-0.067-1.806-0.073-2.667l-2.5,0.017l2.5-0.146
		c-0.006-1.208,0.017-2.379,0.07-3.51l0.007-0.12c0.011-0.231,0.028-0.445,0.041-0.67c0.056-0.967,0.124-1.893,0.217-2.783
		c1.165-11.186,3.421-20.775,6.292-28.975c0.41-1.172,0.833-2.314,1.266-3.43c6.379-16.402,15.179-26.773,22.033-32.882
		c1.094-0.977,2.139-1.844,3.117-2.609c0.265-0.208,0.543-0.424,0.834-0.647c0.282-0.217,0.577-0.441,0.884-0.673
		c9.515-7.177,30.638-20.913,53.777-21.735c0.01,0,0.02,0,0.03-0.001c3.385-0.118,6.602-0.14,9.738-0.058
		c1.62,0.043,3.208,0.122,4.775,0.227c20.635,1.366,36.874,8.062,51.814,21.29c0.7,0.619,1.401,1.231,2.095,1.88
		c0.579,0.541,1.158,1.088,1.736,1.65c0.566,0.552,1.109,1.086,1.641,1.61c0.403,0.398,0.796,0.79,1.181,1.174
		c1.344,1.345,2.575,2.607,3.707,3.803c3.401,3.594,5.908,6.587,7.908,9.422c0.188,0.267,0.371,0.531,0.55,0.795
		c1.572,2.313,2.924,4.684,4.255,7.458c0.934,1.948,1.906,4.187,3.152,7.257c2.133,5.258,5.008,13.262,7.694,21.42
		c0.007,0.021,0.015,0.043,0.021,0.064c1.957,5.947,3.558,11.203,4.589,15.019c0.004,0.015,0.008,0.028,0.012,0.043
		c0.089,0.331,0.175,0.651,0.255,0.96c0.005,0.021,0.01,0.041,0.016,0.063c0.077,0.297,0.151,0.585,0.22,0.859
		c0.012,0.049,0.022,0.093,0.034,0.141c0.061,0.243,0.119,0.481,0.172,0.706c0.016,0.065,0.029,0.125,0.044,0.189
		c0.046,0.197,0.092,0.393,0.132,0.574c0.017,0.076,0.03,0.144,0.046,0.217c0.031,0.146,0.064,0.295,0.091,0.429h0
		c-1.231,0.798-3.421,2.184-6.916,4.309c-1.015,0.617-5.762,3.064-13.867,7.156c-1.972,0.995-4.144,2.089-6.509,3.276
		c-22.865,11.484-63.871,31.847-118.396,58.781C147.868,531.07,146.537,531.727,145.198,532.388z"/>
	<path fill="#C3E88D" d="M294.109,323.176L294.109,323.176L294.109,323.176c-10.905-2.655-20.663-4.969-24.137-5.732
		c-0.021-0.005-0.041-0.009-0.061-0.014c-0.224-0.049-0.421-0.091-0.589-0.126c-0.02-0.004-0.036-0.007-0.055-0.011
		c-0.163-0.034-0.303-0.062-0.404-0.081c-0.065-0.012-0.14-0.026-0.225-0.042c-5.343-1.028-49.768-10.519-54.561-11.717
		c-1.276-0.319-4.223-1.066-7.949-2.012c-2.162-0.548-4.592-1.165-7.104-1.801c-0.246-0.063-0.488-0.124-0.736-0.187
		c-0.088-0.022-0.174-0.044-0.262-0.066c-0.103-0.026-0.206-0.052-0.309-0.078c-0.191-0.048-0.381-0.096-0.573-0.145
		c-1.555-0.394-3.125-0.791-4.674-1.182c-0.849-0.214-1.641-0.414-2.407-0.607c-3.476-0.876-6.142-1.544-8.173-2.048
		c-0.054-0.013-0.108-0.027-0.161-0.04c-0.115-0.028-0.224-0.055-0.334-0.083c-5.109-1.265-5.975-1.436-6.325-1.458
		c-0.768-0.105-2.543-0.667-3.639-1.537c-0.117-0.093-0.211-0.196-0.311-0.296c-0.056-0.056-0.124-0.106-0.173-0.164
		c-0.137-0.162-0.248-0.332-0.324-0.509c-0.053-0.124-0.087-0.255-0.104-0.391c-0.018-0.136-0.018-0.276-0.004-0.421
		c0.083-0.866,0.681-1.857,1.247-2.621l0.215-0.29c6.326-8.539,21.141-28.533,20.696-48.424c-0.016-0.717-0.035-1.445-0.055-2.184
		c-0.146-5.172-0.399-10.873-0.665-16.864c-0.445-10.021-0.9-20.254-0.867-28.512c0.017-4.128,0.155-7.763,0.478-10.629
		c0.064-0.573,0.137-1.116,0.216-1.625c2.34-14.943,8.455-42.437,23.115-58.682c1.053-1.167,2.123-2.328,3.212-3.481
		c1.09-1.152,2.2-2.296,3.333-3.427c0.567-0.566,1.14-1.128,1.719-1.687c7.893-7.613,16.983-14.542,28.386-19.604
		c11.188-4.967,24.604-8.138,41.332-8.368c0.847-0.012,1.686-0.018,2.522-0.018c36.418,0,65.205,11.14,80.002,21.565
		c0.43,0.303,0.879,0.628,1.342,0.97c0.151,0.112,0.313,0.235,0.467,0.352c0.319,0.239,0.638,0.478,0.971,0.733
		c0.192,0.148,0.394,0.308,0.59,0.461c0.309,0.241,0.617,0.482,0.936,0.737c0.216,0.173,0.438,0.354,0.658,0.533
		c0.313,0.253,0.625,0.507,0.945,0.772c0.232,0.193,0.47,0.393,0.706,0.592c0.321,0.27,0.644,0.542,0.972,0.823
		c0.243,0.208,0.489,0.421,0.735,0.636c0.334,0.29,0.669,0.583,1.009,0.884c0.248,0.22,0.498,0.442,0.75,0.668
		c0.348,0.313,0.698,0.631,1.052,0.954c0.252,0.23,0.504,0.461,0.759,0.697c0.36,0.334,0.724,0.676,1.088,1.02
		c0.254,0.24,0.507,0.478,0.763,0.723c0.377,0.361,0.757,0.731,1.138,1.103c0.247,0.241,0.493,0.479,0.74,0.724
		c0.406,0.401,0.814,0.813,1.223,1.225c0.227,0.229,0.453,0.454,0.681,0.687c0.476,0.487,0.954,0.986,1.432,1.487
		c0.161,0.168,0.32,0.331,0.481,0.501c0.642,0.679,1.285,1.371,1.928,2.075c0.096,0.105,0.19,0.214,0.286,0.32
		c0.542,0.598,1.084,1.201,1.624,1.815c0.22,0.249,0.437,0.505,0.655,0.756c0.414,0.478,0.828,0.955,1.239,1.441
		c0.257,0.304,0.512,0.614,0.767,0.921c0.286,0.343,0.573,0.681,0.856,1.028c1.471-0.355,2.755-0.665,3.811-0.918l1.557-0.372
		c-0.16-0.201-0.318-0.406-0.479-0.606c-0.327-0.411-0.656-0.819-0.986-1.224c-0.326-0.4-0.653-0.797-0.981-1.191
		c-0.331-0.397-0.661-0.792-0.994-1.184c-0.332-0.391-0.665-0.779-0.998-1.164c-0.331-0.382-0.662-0.763-0.994-1.139
		c-0.337-0.382-0.675-0.759-1.013-1.134c-0.33-0.367-0.66-0.733-0.991-1.094c-0.34-0.372-0.681-0.738-1.021-1.103
		c-0.328-0.352-0.655-0.702-0.983-1.047c-0.344-0.362-0.687-0.718-1.03-1.073c-0.322-0.333-0.645-0.667-0.967-0.994
		c-0.347-0.354-0.692-0.699-1.039-1.044c-0.314-0.314-0.629-0.63-0.943-0.938c-0.348-0.342-0.694-0.676-1.04-1.01
		c-0.309-0.297-0.616-0.596-0.922-0.887c-0.346-0.329-0.688-0.647-1.03-0.966c-0.302-0.282-0.604-0.566-0.902-0.84
		c-0.345-0.316-0.684-0.622-1.024-0.928c-0.289-0.261-0.579-0.525-0.865-0.779c-0.348-0.309-0.688-0.605-1.031-0.904
		c-0.271-0.236-0.543-0.477-0.811-0.706c-0.347-0.298-0.687-0.582-1.026-0.869c-0.256-0.215-0.514-0.436-0.765-0.644
		c-0.344-0.285-0.677-0.554-1.013-0.827c-0.238-0.193-0.48-0.394-0.715-0.581c-0.354-0.283-0.695-0.549-1.04-0.818
		c-0.203-0.158-0.411-0.325-0.61-0.479c-0.387-0.297-0.758-0.575-1.13-0.852c-0.147-0.11-0.301-0.229-0.446-0.336
		c-0.511-0.377-1.008-0.736-1.488-1.075c-15.422-10.867-45.294-22.478-82.881-22.478c-0.857,0-1.723,0.006-2.59,0.018
		c-42.059,0.579-64.864,19.643-81.625,38.216c-15.529,17.207-21.917,45.766-24.343,61.258c-0.593,3.784-0.783,9.134-0.749,15.32
		c0.044,7.953,0.458,17.285,0.865,26.442c0.228,5.114,0.445,10.016,0.593,14.542c0.05,1.509,0.091,2.977,0.123,4.396
		c0.102,4.544-0.736,9.186-2.135,13.708c-0.35,1.13-0.735,2.253-1.149,3.366c-0.829,2.225-1.773,4.405-2.789,6.516
		c-4.567,9.498-10.547,17.568-13.643,21.746l-0.215,0.291c-1.647,2.223-2.218,4.141-2.241,5.715
		c-0.002,0.175,0.002,0.346,0.012,0.512c0.021,0.333,0.065,0.648,0.129,0.946c0.126,0.596,0.327,1.122,0.555,1.574
		c1.895,3.762,6.927,4.952,8.402,5.138l0,0.003c0.035,0.006,0.088,0.016,0.152,0.03c0.036,0.007,0.08,0.017,0.125,0.027
		c0.029,0.006,0.056,0.012,0.089,0.019c0.075,0.017,0.158,0.035,0.256,0.058c0.002,0,0.004,0.001,0.007,0.002
		c0.662,0.151,1.879,0.443,3.977,0.961c0.063,0.016,0.125,0.031,0.19,0.047c0.216,0.053,0.454,0.112,0.689,0.17
		c0.176,0.044,0.348,0.086,0.535,0.133c0.038,0.009,0.082,0.021,0.12,0.03c2.011,0.5,4.646,1.159,8.064,2.02
		c0.776,0.195,1.58,0.398,2.441,0.615c0.798,0.201,1.603,0.405,2.407,0.608c0.772,0.195,1.543,0.39,2.312,0.584
		c3.16,0.8,6.25,1.583,8.934,2.265c3.734,0.947,6.688,1.696,7.966,2.016c4.821,1.206,49.491,10.749,54.861,11.783
		c0.085,0.016,0.161,0.03,0.226,0.042c0.179,0.033,0.465,0.093,0.849,0.176c0.256,0.056,0.555,0.122,0.895,0.198
		c0.509,0.115,1.109,0.252,1.791,0.409c1.732,0.4,3.994,0.932,6.617,1.556c0.228,0.054,0.458,0.109,0.69,0.165
		c1.647,0.393,3.425,0.818,5.301,1.269c0.475,0.114,0.957,0.23,1.442,0.348c4.436,1.069,9.332,2.261,14.242,3.469
		c0.047,0.012,0.094,0.023,0.141,0.035c14.092,3.467,28.25,7.056,31.838,8.253c0.01,0.004,0.02,0.007,0.03,0.01
		c0.917,0.307,1.73,0.595,2.521,0.89c0.22,0.081,0.438,0.165,0.656,0.248c0.168,0.064,0.338,0.13,0.507,0.196
		c0.086,0.033,0.172,0.066,0.259,0.101c0.405,0.158,0.821,0.324,1.252,0.497c0.082,0.033,0.165,0.066,0.249,0.101
		c0.344,0.139,0.701,0.283,1.076,0.435c0.079,0.032,0.15,0.062,0.23,0.094c0.232,0.095,0.481,0.195,0.73,0.296
		c0.038,0.015,0.073,0.029,0.111,0.045c0.113,0.046,0.23,0.093,0.348,0.141c0.254,0.103,0.514,0.207,0.787,0.317
		c0.063,0.025,0.126,0.051,0.191,0.076c0.337,0.136,0.689,0.276,1.058,0.423c0.028,0.012,0.056,0.022,0.084,0.034
		c0.832,0.331,1.748,0.691,2.769,1.088c0.031,0.013,0.066,0.025,0.097,0.038c0.414,0.16,0.852,0.329,1.301,0.502
		c0.277,0.106,0.571,0.219,0.863,0.33c0.157,0.06,0.319,0.121,0.48,0.183c0.86,0.327,1.76,0.667,2.752,1.037
		c0.404,0.151,0.818,0.306,1.247,0.464l0.047-0.124c-4.016-1.562-9.761-3.798-16.488-6.417c-0.045-0.017-0.09-0.034-0.135-0.052
		c-0.097-0.038-0.195-0.076-0.293-0.114c-0.044-0.018-0.089-0.035-0.133-0.052c-11.686-4.55-26.231-10.214-39.859-15.521"/>
	<path fill="#C3E88D" d="M351.355,345.549c-0.428-0.158-0.842-0.313-1.247-0.464l4.884,20.051l1.074,0.511
		c11.07,5.263,18.034,10.472,21.505,13.425c-0.007-0.432-0.024-0.803-0.038-0.99l-0.446-6.222l3.544,3.215l-3.553-3.225l0.034,0.461
		c-4.029-3.008-9.872-6.798-17.824-10.663l-3.54-14.533c-1.045-0.405-2.513-0.977-4.347-1.689L351.355,345.549z"/>
	<path fill="#C3E88D" d="M392.712,355.347l-0.264,2.611l0,0c-0.089,0,0.202,0.01,0,0l0,0c0.078,0.012-0.519,0.063,2.211,0.063h0.001
		c7.131,0,23.931-2.05,25.958-21.04c1.389-13.008,4.29-43.181,6.851-69.802c1.746-18.162,3.405-35.412,4.308-44.325l-4.944-0.801
		c-0.897,8.842-2.574,26.281-4.341,44.647c-2.559,26.609-5.459,56.769-6.846,69.75c-1.462,13.697-12.22,16.572-20.986,16.571
		c-0.598,0-1.146-0.016-1.63-0.038"/>
	<path fill="#C3E88D" d="M446.491,221.159c-0.005-0.303-0.46-30.722-3.74-63.526c-2.389-23.899-16.396-27.468-24.533-27.468
		c-4.294,0-7.62,0.981-8.312,1.201l-2.346,0.561l-1.557,0.372c-1.056,0.253-2.34,0.563-3.811,0.918
		c-0.002,0-0.005,0.001-0.007,0.001c-0.01,0.002-0.021,0.005-0.03,0.007c-1.14,0.275-2.394,0.579-3.747,0.907
		c-0.099,0.024-0.195,0.047-0.295,0.072c-0.647,0.157-1.317,0.32-2.007,0.488c-0.113,0.027-0.229,0.056-0.343,0.083
		c-0.647,0.158-1.308,0.319-1.989,0.485c-0.195,0.048-0.397,0.097-0.596,0.146c-0.592,0.145-1.194,0.292-1.81,0.443
		c-0.163,0.04-0.322,0.079-0.487,0.119c-0.654,0.161-1.325,0.325-2.003,0.492c-0.295,0.072-0.59,0.145-0.889,0.218
		c-0.661,0.163-1.333,0.329-2.013,0.496c-0.281,0.07-0.566,0.14-0.851,0.21c-0.699,0.173-1.405,0.348-2.122,0.525
		c-0.268,0.066-0.539,0.133-0.809,0.201c-0.652,0.162-1.311,0.325-1.975,0.49c-0.229,0.057-0.457,0.114-0.688,0.171
		c-0.805,0.201-1.619,0.404-2.438,0.608c-0.246,0.062-0.493,0.124-0.741,0.186c-0.816,0.204-1.639,0.41-2.467,0.618
		c-0.264,0.066-0.528,0.133-0.793,0.199c-0.79,0.199-1.584,0.399-2.382,0.601c-0.235,0.059-0.473,0.119-0.708,0.179
		c-0.792,0.2-1.587,0.401-2.384,0.604c-0.195,0.049-0.391,0.099-0.587,0.149c-0.898,0.228-1.799,0.458-2.701,0.688
		c-0.213,0.054-0.426,0.109-0.639,0.164c-0.9,0.23-1.801,0.46-2.702,0.692c-0.195,0.05-0.391,0.101-0.587,0.151
		c-0.957,0.247-1.914,0.494-2.869,0.741c-13.608,3.526-27.938,7.569-40.099,11.084c-6.797,1.965-12.925,3.766-17.851,5.214
		l-5.419,1.591c-25.195,7.367-24.494,31.112-24.377,33.237c-0.008,0.811-0.114,8.514-1.428,23.302
		c-0.577,6.49-5.597,29.011-10.789,51.071c-2.683,11.397-5.411,22.671-7.597,31.547c-0.166,0.673-0.214,1.315-0.149,1.959
		c0.193,1.936,1.488,3.171,2.743,3.583l0.011,0.004c6.279,2.446,41.267,16.074,69.146,26.929c4.438,1.729,8.692,3.385,12.625,4.916
		c0.044,0.017,0.089,0.034,0.133,0.052c0.098,0.038,0.196,0.076,0.293,0.114c4.195,1.633,8.008,3.116,11.265,4.384
		c2.011,0.782,3.815,1.484,5.359,2.085c1.834,0.713,3.301,1.284,4.347,1.689c1.107,0.43,1.739,0.675,1.794,0.694l0.847-2.353
		l-0.691,2.408l19.485,6.816c1.058,0.362,2.145,0.708,3.231,1.028l0.117,0.034c1.024,0.3,2.052,0.574,3.146,0.839
		c1.005,0.241,1.993,0.452,2.849,0.609l0.118,0.024c0.957,0.178,1.905,0.327,2.819,0.444l0.173,0.017
		c0.023,0.001,0.037,0.001,0.059,0.003c0.202,0.01,0.354,0.013,0.442,0.013l2.436-0.118l0.139-2.228
		c0.056-0.891,5.533-89.165,6.042-99.842c0.381-8-3.627-11.63-6.683-12.82c-0.477-0.186-0.932-0.317-1.342-0.391
		c-3.161-0.786-52.165-12.964-59.226-14.517c-0.695-0.153-1.342-0.344-1.957-0.572c-0.029-0.011-0.06-0.019-0.088-0.03
		c-0.741-0.284-1.388-0.621-1.968-1.037c-0.086-0.064-0.169-0.129-0.245-0.193c-0.868-0.735-1.167-1.468-1.25-1.716
		c0.047-1.834,0.306-11.771,0.424-16.236c0.019-0.723,0.048-1.816,2.289-1.816c0.178,0,0.314,0.013,0.305,0.005l102.764,16.67
		l12.531,2.033l2.195-2.859L446.491,221.159z M432.291,217.872l-2.258-0.366l-100.29-16.268l-0.154-0.018
		c-0.147-0.015-0.461-0.042-0.882-0.042c-4.319,0-7.179,2.623-7.287,6.683c-0.125,4.736-0.408,15.626-0.432,16.553l-0.004,0.188
		l0.024,0.186c0.036,0.279,0.43,2.792,3.006,4.974c0.15,0.127,0.31,0.253,0.481,0.381l0.135,0.099
		c0.878,0.627,1.9,1.166,3.082,1.618c0.018,0.007,0.039,0.012,0.057,0.019c0.821,0.309,1.714,0.572,2.659,0.78
		c7.076,1.556,58.665,14.379,59.184,14.509l0.165,0.035c0.068,0.014,0.226,0.054,0.429,0.129c1.116,0.412,3.834,2.022,3.553,7.934
		c-0.457,9.587-4.946,82.158-5.872,97.093c-0.119-0.021-0.239-0.043-0.359-0.065c-0.86-0.16-1.764-0.353-2.77-0.595
		c-0.925-0.224-1.875-0.478-2.826-0.755l-0.7,2.399l0.595-2.432c-1.018-0.3-2.035-0.623-3.023-0.962l-19.547-6.839
		c-1.339-0.503-96.831-37.698-104.395-40.644c0.338-1.374,1.098-4.468,2.125-8.693c0.139-0.571,0.282-1.161,0.43-1.771
		c0.186-0.766,0.378-1.563,0.577-2.386c4.705-19.466,12.953-54.299,14.96-67.37c0.011-0.069,0.021-0.139,0.032-0.207
		c0.168-1.111,0.29-2.06,0.357-2.818c1.406-15.831,1.447-23.48,1.448-23.798l-0.008-0.207l0-0.008
		c-0.071-0.881-1.476-21.66,20.788-28.169l5.426-1.593c13.711-4.032,36.659-10.779,57.794-16.256
		c0.605-0.157,1.212-0.313,1.819-0.47c1.702-0.439,3.407-0.876,5.106-1.31c0.103-0.026,0.204-0.052,0.307-0.078
		c0.461-0.118,0.921-0.235,1.381-0.352c0.146-0.037,0.292-0.075,0.438-0.111c0.427-0.109,0.853-0.217,1.278-0.325
		c0.181-0.046,0.362-0.092,0.543-0.138c0.484-0.123,0.967-0.245,1.449-0.367c0.092-0.023,0.184-0.047,0.275-0.07
		c1.112-0.281,2.216-0.559,3.312-0.834c0.075-0.019,0.15-0.038,0.225-0.057c0.552-0.138,1.1-0.276,1.646-0.413
		c0.009-0.002,0.019-0.004,0.027-0.007c13.304-3.333,25.026-6.168,30.574-7.5l0.233-0.056l3.757-0.898l0.222-0.063
		c0.029-0.01,2.971-0.978,6.835-0.978c7.875,0,17.661,3.984,19.559,22.965c2.794,27.941,3.524,54.141,3.679,61.228L432.291,217.872z
		"/>
	<path fill="#C3E88D" d="M528.894,397.804c0.087-0.448,0.185-0.953,0.286-1.483c0.127-0.655,0.264-1.361,0.414-2.139
		c0.167-0.862,0.35-1.808,0.544-2.814c0.048-0.247,0.096-0.496,0.146-0.751c0.345-1.785,0.729-3.778,1.151-5.96
		c0.307-1.584,0.633-3.27,0.977-5.05c0.181-0.933,0.365-1.889,0.556-2.873c0.094-0.482,0.188-0.973,0.284-1.468
		c8.532-44.128,26.281-135.856,40.147-207.154c11.46-58.936,17.955-92.02,19.304-98.333c4.164-19.49,10.456-25.084,10.493-25.117
		l0.205-0.167l0.165-0.206c0.239-0.298,24.064-29.883,31.241-35.911c2.737-2.298,4.744-3.06,6.008-3.287l1.038-4.931l2.285,0.289
		c0.292,0.037,0.579,0.127,0.864,0.24C644.275,0.352,643.18,0,641.708,0c-3.117,0-6.521,1.531-10.116,4.551
		c-7.35,6.173-29.706,33.854-31.798,36.451c-1.353,1.262-7.792,8.124-11.982,27.733c-1.295,6.065-7.299,36.627-17.847,90.844
		c-0.483,2.483-0.973,4.998-1.475,7.58c-0.938,4.821-1.894,9.739-2.862,14.726c-3.825,19.683-7.862,40.488-11.865,61.134
		c-0.052,0.263-0.103,0.525-0.153,0.788c-0.154,0.794-0.308,1.588-0.462,2.382c-13.329,68.756-26.12,134.922-29.152,150.612
		c0.81,0.166,1.627,0.334,2.477,0.508L528.894,397.804z"/>
	<path fill="#C3E88D" d="M668.562,54.592c-1.571-4.191-3.276-9.146-5.082-14.391c-4.073-11.833-8.688-25.245-13.184-33.806
		c-0.026-0.05-2.439-4.577-5.294-5.705c-0.285-0.112-0.572-0.203-0.864-0.24l-2.285-0.289l-1.038,4.931l-83.891,398.457v0.001l0,0
		l43.682,8.954l69.482-326.26C670.247,85.544,673.941,68.936,668.562,54.592z M665.205,85.167l-69.496,326.324l-33.883-6.938
		l-0.005-0.001L645.344,7.848c0.189,0.285,0.355,0.561,0.49,0.812c0.011,0.02,0.024,0.041,0.034,0.06
		c4.318,8.224,8.869,21.444,12.884,33.109c1.816,5.278,3.532,10.264,5.128,14.52C668.723,69.262,665.248,84.976,665.205,85.167z"/>
	<path fill="#C3E88D" d="M639.297,420.436l-38.691-7.932l-43.682-8.954l-28.03-5.746l-2.422-0.496
		c-0.85-0.174-1.667-0.342-2.477-0.508c-14.764-3.029-22.825-4.691-23.95-4.936c-4.454-0.968-19.758-3.766-24.394-3.766
		c-0.437,0-0.8,0.023-1.109,0.071c-1.175,0.181-4.167,0.962-6.585,4.312c-2.927,4.054-3.735,10.106-2.402,17.991
		c0.252,1.49,0.621,2.934,1.108,4.329c0.487,1.396,1.091,2.745,1.813,4.047c0.36,0.65,0.751,1.289,1.17,1.916
		c4.608,6.894,12.744,12.338,24.321,16.251c0.205,0.069,0.437,0.144,0.683,0.221c0.052,0.017,0.104,0.033,0.159,0.05
		c0.243,0.075,0.504,0.153,0.785,0.235c0.064,0.02,0.137,0.039,0.203,0.059c0.224,0.064,0.46,0.132,0.706,0.2
		c0.118,0.033,0.235,0.066,0.357,0.1c0.289,0.08,0.593,0.162,0.91,0.248c0.17,0.045,0.351,0.093,0.529,0.14
		c0.2,0.054,0.407,0.107,0.619,0.163c0.188,0.049,0.372,0.097,0.569,0.147c1.433,0.369,3.084,0.779,4.979,1.237
		c0.386,0.093,0.783,0.188,1.181,0.283c2.688,0.644,5.654,1.333,8.734,2.036c1.606,0.367,3.242,0.737,4.889,1.106
		c14.552,3.269,29.786,6.48,30.003,6.526c4.52,0.928,11.408,2.249,18.781,3.635c4.808,0.904,9.82,1.835,14.517,2.701
		c11.403,2.104,20.941,3.828,21.136,3.863l0.131,0.021c3.175,0.401,6.227,0.605,9.072,0.605c0,0-0.001,0,0.001,0
		c18.758,0,30.451-8.691,34.751-25.831C649.709,426.607,643.085,421.826,639.297,420.436z M642.813,433.545
		c-3.722,14.836-13.503,22.048-29.902,22.048c-2.617,0-5.436-0.188-8.38-0.558c-1.256-0.228-19.525-3.534-35.504-6.537
		c-7.359-1.384-14.234-2.702-18.734-3.626c-0.232-0.049-19.317-4.072-35.134-7.688c-3.395-0.776-6.642-1.533-9.517-2.229
		c-5.026-1.216-8.416-2.116-10.074-2.677c-14.961-5.058-23.4-12.675-25.084-22.641c-1.371-8.114,0.073-12.218,1.526-14.23
		c1.384-1.917,2.984-2.249,3.288-2.296c0.092-0.013,0.211-0.014,0.353-0.014c3.641,0,16.42,2.233,22.123,3.398
		c0.058,0.013,0.12,0.024,0.177,0.036c0.12,0.025,0.231,0.048,0.345,0.072c0.064,0.013,0.133,0.027,0.195,0.04
		c0.173,0.037,0.337,0.072,0.491,0.105c1.206,0.262,10.117,2.097,26.485,5.455l2.239,0.458l0.237,0.049l27.95,5.723l43.673,8.941
		l38.162,7.813C638.749,425.606,644.181,428.095,642.813,433.545z"/>
	<path fill="#C3E88D" d="M608.574,478.299c-0.731-13.033-15.476-16.864-21.097-17.24c-0.96-0.063-2.981-0.092-5.771-0.104
		c-0.913-0.004-1.907-0.007-2.976-0.008l-4.314-0.002h-0.098c-1.619,0-3.296,0-4.985-0.002c-4.771-0.006-9.651-0.026-13.685-0.104
		c-1.613-0.031-3.482-0.082-5.52-0.146c-0.077-0.003-0.151-0.005-0.229-0.008c-0.546-0.018-1.111-0.036-1.683-0.056
		c-0.204-0.007-0.403-0.014-0.611-0.021c-0.492-0.017-0.996-0.035-1.504-0.055c-0.309-0.011-0.614-0.022-0.929-0.034
		c-0.456-0.018-0.92-0.036-1.387-0.055c-0.377-0.015-0.753-0.029-1.137-0.045c-0.438-0.019-0.879-0.037-1.324-0.056
		c-0.432-0.019-0.865-0.037-1.305-0.056c-0.412-0.019-0.827-0.037-1.245-0.056c-0.485-0.021-0.973-0.044-1.464-0.066
		c-0.391-0.019-0.782-0.037-1.177-0.056c-0.53-0.025-1.064-0.051-1.6-0.077c-0.367-0.019-0.732-0.036-1.102-0.055
		c-0.572-0.029-1.147-0.059-1.723-0.089c-0.345-0.018-0.688-0.035-1.034-0.054c-0.613-0.032-1.229-0.066-1.844-0.1
		c-0.312-0.018-0.621-0.034-0.933-0.051c-0.675-0.038-1.349-0.077-2.022-0.116c-0.248-0.015-0.497-0.028-0.745-0.043
		c-0.81-0.048-1.617-0.097-2.421-0.146c-0.112-0.007-0.225-0.014-0.336-0.021c-1.886-0.117-3.752-0.239-5.576-0.367
		c-0.913-0.063-1.816-0.128-2.705-0.194c-0.784-0.059-1.548-0.117-2.298-0.176c-2.488-0.196-4.792-0.396-6.864-0.598
		c-1.207-0.117-2.406-0.177-3.564-0.177c-14.036,0-20.382,8.514-22.468,11.312l-0.155,0.208
		c-2.096,2.795-10.875,23.647-13.248,29.616c-4.594,1.188-15.8,3.709-20.979,4.865c-1.626,0.362-2.665,0.593-2.71,0.603l0.377,1.705
		l-0.146,0.021l-0.724-1.735c-0.355,0.148-0.937,0.346-1.697,0.582c-0.091,0.028-0.178,0.056-0.273,0.085
		c-0.063,0.02-0.128,0.039-0.194,0.06c-0.18,0.055-0.369,0.11-0.566,0.169c-0.061,0.018-0.121,0.036-0.185,0.055
		c-0.212,0.062-0.436,0.126-0.666,0.192c-0.061,0.018-0.119,0.034-0.181,0.052c-0.257,0.073-0.525,0.149-0.804,0.227
		c-0.038,0.011-0.074,0.021-0.112,0.032c-0.315,0.088-0.644,0.178-0.985,0.271c-0.008,0.002-0.016,0.005-0.024,0.007
		c-15.429,4.222-56.446,13.806-81.226,18.036c-0.051,0.008-0.102,0.017-0.153,0.025c-0.509,0.087-1.011,0.171-1.506,0.253
		c-0.087,0.015-0.173,0.028-0.26,0.043c-0.453,0.075-0.899,0.147-1.339,0.218c-0.112,0.019-0.223,0.036-0.335,0.054
		c-0.415,0.066-0.824,0.13-1.227,0.192c-0.118,0.019-0.234,0.036-0.352,0.054c-0.383,0.059-0.761,0.115-1.132,0.17
		c-0.132,0.02-0.264,0.039-0.395,0.059c-0.353,0.051-0.699,0.101-1.041,0.148c-0.133,0.019-0.265,0.037-0.396,0.055
		c-0.329,0.045-0.651,0.089-0.969,0.13c-0.135,0.019-0.271,0.036-0.404,0.053c-0.303,0.039-0.598,0.076-0.89,0.111
		c-0.136,0.017-0.273,0.033-0.407,0.05c-0.28,0.033-0.552,0.063-0.821,0.093c-0.132,0.015-0.267,0.03-0.396,0.044
		c-0.263,0.028-0.516,0.053-0.768,0.077c-0.123,0.013-0.25,0.025-0.37,0.036c-0.245,0.022-0.479,0.042-0.711,0.062
		c-0.117,0.01-0.237,0.02-0.351,0.028c-0.229,0.018-0.445,0.031-0.662,0.045c-0.104,0.007-0.213,0.015-0.313,0.021
		c-0.228,0.013-0.441,0.021-0.653,0.029c-0.078,0.003-0.161,0.008-0.237,0.01c-0.282,0.009-0.55,0.014-0.803,0.014
		c-0.252,0-0.472-0.005-0.663-0.012c-4.739-8.455-21.377-35.514-27.286-45.098c-0.191-0.31-0.37-0.601-0.538-0.872
		c4.524-2.353,12.252-8.473,9.435-22.091c-2.356-11.386-9.84-33.174-14.546-46.376c-0.672-1.886-1.288-3.597-1.824-5.077
		c4.167,2.013,10.281,4.9,17.134,7.927c13.084,5.776,28.865,12.055,38.95,13.711c7.886,1.295,15.187,2.036,21.762,2.217
		c1.048,0.028,2.081,0.046,3.091,0.046c6.476,0,12.009-0.584,16.447-1.734c0.486-0.127,0.981-0.273,1.476-0.434l0.1-0.032
		c0.47-0.153,0.942-0.324,1.419-0.505l0.166-0.063c0.454-0.175,0.911-0.363,1.36-0.556l0.215-0.093
		c0.44-0.191,0.88-0.392,1.335-0.606l0.224-0.105c0.424-0.203,0.848-0.413,1.341-0.663c0.005-0.003,0.009-0.004,0.014-0.007
		l0.16-0.083c0.417-0.214,0.83-0.432,1.241-0.653l0.239-0.131c0.405-0.221,0.805-0.444,1.256-0.701l0.156-0.091
		c0.088-0.051,0.17-0.101,0.258-0.15c0.302-0.175,0.604-0.351,0.893-0.522l0.181-0.108c0.376-0.226,0.745-0.45,1.094-0.666
		l0.137-0.086c0.341-0.212,0.67-0.419,0.996-0.628l0.137-0.087c0.066-0.043,0.131-0.085,0.196-0.127
		c0.218-0.141,0.437-0.283,0.666-0.435c0.036-0.023,0.069-0.045,0.106-0.069l0.019-0.012l0.085-0.056
		c0.286-0.188,0.554-0.368,0.854-0.571l0.069-0.048l1.33-0.917l0.12-0.085c0.364-0.258,0.623-0.446,0.749-0.538l1.915-1.401
		l0.003-0.002l-0.037-0.056l-1.363-2.077c-0.128-0.194-0.255-0.39-0.383-0.575c-0.328-0.477-0.673-0.963-1.026-1.453
		c-9.537-13.198-28.255-30.848-33.98-36.137c-0.01-0.009-0.021-0.02-0.03-0.028c-0.921-0.852-1.455-1.336-1.455-1.336l-0.479-0.435
		l-0.597-0.54l-3.544-3.215l0.446,6.222c0.014,0.188,0.031,0.559,0.038,0.99c0,0.011,0.001,0.021,0.001,0.031
		c0.003,0.222,0.003,0.457-0.003,0.695c-0.001,0.034-0.001,0.068-0.002,0.104c-0.008,0.266-0.022,0.53-0.048,0.771l-0.013,0.123
		c-0.075,0.74-0.188,1.857-3.396,6.203c-2.877,3.898-5.574,5.928-15.983,6.274c-1.077,0.036-2.236,0.054-3.487,0.054
		c-0.51,0-1.035-0.003-1.572-0.009c-3.996-0.044-8.548-1.015-13.292-2.523c-10.437-3.318-21.801-9.239-30.21-13.62
		c-1.133-0.59-2.225-1.159-3.267-1.697c-5.099-2.635-12.386-7.201-20.825-12.488c-1.541-0.966-3.129-1.961-4.755-2.976
		c-11.384-7.106-24.628-15.194-36.601-21.021c-1.309-0.637-2.605-1.242-3.892-1.822c-0.424-0.19-0.841-0.363-1.264-0.549
		c-0.856-0.376-1.713-0.754-2.561-1.105c-0.505-0.21-1.002-0.401-1.503-0.603c-0.756-0.305-1.514-0.611-2.263-0.897
		c-0.53-0.202-1.054-0.389-1.581-0.582c-0.711-0.262-1.424-0.525-2.13-0.772c-0.541-0.188-1.077-0.364-1.615-0.543
		c-0.683-0.229-1.365-0.458-2.043-0.673c-0.545-0.173-1.086-0.335-1.629-0.5c-0.663-0.201-1.326-0.402-1.984-0.591
		c-0.544-0.156-1.085-0.304-1.627-0.453c-0.649-0.178-1.298-0.354-1.943-0.521c-0.542-0.141-1.083-0.274-1.623-0.408
		c-0.638-0.157-1.274-0.312-1.908-0.459c-0.54-0.125-1.079-0.247-1.616-0.365c-0.63-0.139-1.259-0.274-1.885-0.405
		c-0.534-0.111-1.066-0.219-1.598-0.324c-0.628-0.124-1.254-0.244-1.879-0.36c-0.527-0.098-1.053-0.194-1.578-0.286
		c-0.626-0.11-1.25-0.216-1.875-0.319c-0.519-0.086-1.038-0.171-1.556-0.253c-0.629-0.099-1.258-0.193-1.886-0.286
		c-0.508-0.075-1.017-0.151-1.524-0.222c-0.637-0.089-1.272-0.175-1.908-0.259c-0.496-0.065-0.991-0.132-1.486-0.195
		c-0.656-0.083-1.312-0.162-1.966-0.241c-0.47-0.056-0.94-0.114-1.409-0.168c-0.704-0.081-1.408-0.159-2.111-0.236
		c-0.416-0.045-0.832-0.093-1.248-0.138c-0.103-0.011-0.205-0.021-0.308-0.032c-0.958-0.102-1.916-0.202-2.875-0.3l-2.157-0.218
		l-0.39-0.04c-2.783-0.272-5.418-0.404-8.056-0.404c0,0,0,0,0,0c-1.151,0-2.301,0.029-3.452,0.081
		c-0.379,0.017-0.759,0.052-1.139,0.074c-0.773,0.047-1.547,0.094-2.323,0.164c-0.457,0.042-0.916,0.1-1.374,0.149
		c-0.702,0.076-1.404,0.152-2.11,0.249c-0.492,0.067-0.989,0.149-1.484,0.226c-0.678,0.105-1.357,0.212-2.041,0.335
		c-0.514,0.093-1.033,0.199-1.551,0.302c-0.673,0.134-1.348,0.273-2.028,0.426c-0.531,0.119-1.067,0.248-1.603,0.378
		c-0.679,0.165-1.36,0.337-2.047,0.52c-0.544,0.145-1.093,0.296-1.644,0.453c-0.694,0.197-1.393,0.404-2.096,0.62
		c-0.555,0.17-1.112,0.342-1.673,0.524c-1.073,0.346-2.15,0.699-3.249,1.088c-0.754,0.267-1.515,0.546-2.28,0.832
		c-6.022,2.25-12.417,5.105-19.473,8.698c-26.459,13.47-49.224,44.159-61.706,68.388c-11.296,21.927-24.665,77.828-25.272,81.883
		c-0.417,2.781-7.693,30.868-13.006,51.377c-2.653,10.241-4.944,19.086-5.93,23.026c-2.939,11.757-17.423,46.317-17.569,46.665
		L0,610.385l0,3.568c0.662,36.661,43.489,61.077,45.688,62.307c0.01,0.006,0.025,0.014,0.033,0.019l2.629,1.463l0.957-2.853
		c0.224-0.667,0.465-1.388,0.715-2.138c0.103-0.308,0.207-0.619,0.313-0.939c0.055-0.165,0.111-0.333,0.167-0.502
		c0.097-0.29,0.194-0.583,0.294-0.883c0.073-0.221,0.148-0.446,0.223-0.672c0.094-0.283,0.188-0.567,0.285-0.857
		c0.068-0.206,0.138-0.417,0.208-0.627c0.104-0.313,0.208-0.627,0.314-0.948c0.079-0.239,0.16-0.482,0.24-0.726
		c0.104-0.314,0.208-0.628,0.313-0.948c0.079-0.239,0.159-0.482,0.239-0.724c0.099-0.302,0.198-0.602,0.299-0.907
		c0.103-0.313,0.207-0.63,0.312-0.946c0.095-0.289,0.189-0.576,0.286-0.868c0.069-0.211,0.14-0.426,0.21-0.638
		c0.128-0.39,0.256-0.778,0.385-1.173c0.056-0.171,0.113-0.346,0.17-0.518c0.144-0.438,0.288-0.877,0.434-1.321
		c0.005-0.016,0.011-0.032,0.016-0.049c0.266-0.81,0.534-1.63,0.804-2.455c0.135-0.413,0.27-0.824,0.405-1.24
		c0.001-0.003,0.002-0.005,0.002-0.008c0.205-0.628,0.411-1.258,0.617-1.89c0.056-0.172,0.112-0.344,0.168-0.516
		c0.155-0.477,0.311-0.953,0.466-1.432c0.074-0.227,0.147-0.453,0.221-0.681c0.128-0.395,0.257-0.789,0.385-1.184
		c0.096-0.296,0.191-0.591,0.288-0.887c0.117-0.36,0.234-0.721,0.35-1.08c0.086-0.264,0.171-0.527,0.256-0.791
		c0.123-0.38,0.246-0.76,0.369-1.139c0.093-0.287,0.185-0.573,0.278-0.859c0.106-0.329,0.212-0.657,0.318-0.984
		c0.101-0.313,0.201-0.623,0.301-0.933c0.109-0.34,0.219-0.679,0.327-1.016c0.087-0.27,0.173-0.537,0.259-0.804
		c0.112-0.35,0.224-0.697,0.334-1.042c0.09-0.279,0.178-0.556,0.267-0.832c0.109-0.342,0.219-0.683,0.327-1.021
		c0.081-0.253,0.162-0.505,0.242-0.756c0.11-0.343,0.219-0.684,0.327-1.021c0.083-0.261,0.166-0.52,0.248-0.776
		c0.11-0.346,0.219-0.688,0.326-1.026c0.068-0.214,0.136-0.428,0.204-0.64c0.109-0.345,0.216-0.684,0.323-1.021
		c0.075-0.235,0.149-0.47,0.222-0.701c0.101-0.318,0.199-0.631,0.297-0.942c0.067-0.212,0.134-0.424,0.199-0.633
		c0.096-0.304,0.189-0.601,0.282-0.897c0.072-0.231,0.145-0.462,0.216-0.688c0.084-0.27,0.166-0.532,0.248-0.795
		c0.067-0.215,0.135-0.432,0.2-0.642c0.082-0.264,0.161-0.518,0.24-0.773c0.065-0.21,0.131-0.422,0.194-0.626
		c0.069-0.223,0.134-0.435,0.2-0.65c0.067-0.217,0.135-0.437,0.198-0.646c0.067-0.221,0.13-0.429,0.195-0.64
		c0.055-0.18,0.111-0.366,0.164-0.54c0.086-0.286,0.167-0.556,0.247-0.822c0.026-0.087,0.054-0.182,0.08-0.266
		c0.104-0.351,0.203-0.685,0.295-0.998c0.191-0.75,0.482-1.905,0.856-3.403c1.762-7.052,5.375-21.706,9.21-37.505
		c0.17-0.702,0.341-1.406,0.512-2.112c0.706-2.912,1.417-5.852,2.123-8.782c0.346-1.434,0.69-2.865,1.032-4.29
		c0.329-1.367,0.654-2.727,0.977-4.076c0.309-1.289,0.614-2.568,0.915-3.834c0.014-0.059,0.028-0.118,0.042-0.177
		c0.449-1.883,0.889-3.736,1.317-5.547c0.024-0.103,0.048-0.204,0.072-0.307c1.594-6.744,3.023-12.891,4.132-17.824
		c0.041-0.181,0.08-0.358,0.12-0.536c0.5-2.23,0.93-4.198,1.275-5.844c0.156-0.741,0.294-1.413,0.414-2.018
		c0.137-0.69,0.253-1.299,0.339-1.796c0.062-0.355,0.129-0.736,0.202-1.141c0.892-4.985,2.55-13.585,4.305-22.631
		c0.38-1.961,0.765-3.94,1.148-5.911c1.082-5.568,1.958-10.089,2.663-13.749c-1.109-4.659-1.949-9.38-2.419-14.088
		c-0.008-0.083-0.015-0.166-0.022-0.249c-0.004-0.051-0.009-0.103-0.014-0.153c0.005,0.056,0.007,0.108,0.012,0.164
		c0,0.001,0,0.003,0,0.004c-0.001,0.014-0.004,0.033-0.006,0.048c-0.004,0.027-0.008,0.06-0.012,0.091
		c-0.006,0.045-0.013,0.093-0.021,0.145c-0.005,0.033-0.011,0.069-0.016,0.105c-0.009,0.063-0.02,0.127-0.031,0.197
		c-0.006,0.041-0.014,0.085-0.021,0.129c-0.011,0.07-0.023,0.143-0.036,0.22c-0.009,0.056-0.019,0.114-0.029,0.174
		c-0.014,0.081-0.028,0.165-0.043,0.253c-0.01,0.061-0.021,0.124-0.032,0.188c-0.017,0.097-0.035,0.197-0.053,0.302
		c-0.011,0.059-0.021,0.119-0.032,0.182c-0.02,0.112-0.041,0.229-0.063,0.35c-0.013,0.073-0.026,0.147-0.04,0.224
		c-0.021,0.118-0.043,0.239-0.065,0.363c-0.015,0.08-0.029,0.161-0.044,0.243c-0.023,0.129-0.047,0.261-0.072,0.395
		c-0.016,0.087-0.032,0.174-0.048,0.262c-0.026,0.142-0.053,0.287-0.081,0.435c-0.017,0.091-0.033,0.181-0.05,0.273
		c-0.027,0.144-0.054,0.292-0.082,0.441c-0.02,0.105-0.04,0.212-0.06,0.32c-0.029,0.154-0.058,0.312-0.088,0.47
		c-0.02,0.105-0.039,0.21-0.059,0.317c-0.026,0.136-0.051,0.273-0.078,0.413c-0.033,0.173-0.065,0.347-0.099,0.525
		c-0.017,0.088-0.034,0.177-0.05,0.266c-0.032,0.172-0.065,0.346-0.099,0.522c-0.028,0.146-0.056,0.295-0.084,0.444
		c-0.033,0.174-0.066,0.348-0.1,0.525c-0.016,0.085-0.033,0.171-0.049,0.257c-0.045,0.237-0.091,0.477-0.137,0.72
		c-0.011,0.055-0.021,0.11-0.032,0.165c-0.05,0.262-0.1,0.525-0.152,0.794c-0.013,0.069-0.026,0.14-0.04,0.209
		c-0.048,0.252-0.097,0.506-0.146,0.764c-0.011,0.058-0.022,0.116-0.034,0.174c-0.893,4.653-1.946,10.077-2.944,15.213
		c-1.601,8.24-3.239,16.669-4.424,22.965c-0.279,1.481-0.532,2.841-0.754,4.055c-0.031,0.174-0.063,0.346-0.093,0.513
		c-0.15,0.825-0.286,1.583-0.401,2.245c-0.069,0.394-0.155,0.854-0.256,1.372c-0.066,0.341-0.142,0.716-0.222,1.108
		c-0.108,0.529-0.227,1.1-0.357,1.717c-3.94,18.593-17.956,75.655-21.72,90.697c-0.037,0.146-0.072,0.286-0.106,0.424
		c-0.174,0.695-0.326,1.298-0.447,1.778c-0.046,0.181-0.088,0.345-0.125,0.493c-0.087,0.299-0.182,0.617-0.281,0.951
		c-0.046,0.156-0.098,0.327-0.147,0.49c-0.058,0.193-0.115,0.383-0.176,0.586c-0.053,0.176-0.11,0.363-0.166,0.546
		c-0.061,0.2-0.121,0.397-0.185,0.606c-0.065,0.213-0.134,0.437-0.202,0.657c-0.06,0.195-0.119,0.388-0.181,0.589
		c-0.073,0.236-0.149,0.481-0.225,0.727c-0.063,0.205-0.127,0.41-0.192,0.621c-0.076,0.243-0.153,0.492-0.231,0.742
		c-0.068,0.219-0.137,0.438-0.207,0.662c-0.086,0.276-0.175,0.558-0.264,0.842c-0.064,0.204-0.128,0.41-0.194,0.618
		c-0.094,0.299-0.189,0.601-0.286,0.907c-0.069,0.22-0.14,0.441-0.21,0.665c-0.094,0.297-0.189,0.597-0.285,0.9
		c-0.073,0.229-0.147,0.463-0.221,0.696c-0.106,0.335-0.213,0.671-0.322,1.013c-0.056,0.177-0.113,0.355-0.17,0.534
		c-0.12,0.375-0.239,0.752-0.362,1.135c-0.067,0.211-0.136,0.426-0.204,0.639c-0.118,0.37-0.236,0.74-0.357,1.115
		c-0.056,0.176-0.114,0.355-0.17,0.532c-0.129,0.402-0.258,0.806-0.389,1.214c-0.082,0.254-0.164,0.511-0.246,0.766
		c-0.152,0.473-0.305,0.947-0.458,1.426c-0.155,0.48-0.31,0.962-0.466,1.447c-0.031,0.097-0.063,0.195-0.095,0.293
		c-0.175,0.541-0.35,1.085-0.527,1.631c-0.034,0.105-0.069,0.213-0.103,0.318c-0.168,0.52-0.337,1.04-0.506,1.563
		c-0.048,0.149-0.097,0.299-0.146,0.448c-0.174,0.536-0.348,1.073-0.522,1.61c-0.008,0.025-0.017,0.05-0.024,0.075
		c-0.195,0.6-0.389,1.198-0.584,1.797c-0.037,0.113-0.074,0.228-0.111,0.341c-0.182,0.559-0.363,1.116-0.545,1.673
		c-0.015,0.047-0.03,0.094-0.046,0.14c-0.199,0.611-0.397,1.219-0.595,1.825c-0.01,0.031-0.021,0.063-0.031,0.095
		c-2.063,6.314-4.049,12.338-5.605,17.008C36.311,664.496,5.524,642.885,5,613.909v-2.518c1.825-4.364,14.737-35.415,17.614-46.922
		c0.98-3.92,3.269-12.756,5.919-22.985c7.17-27.678,12.688-49.072,13.11-51.889c0.575-3.835,13.961-59.348,24.773-80.336
		c12.124-23.535,34.129-53.29,59.529-66.222c7.755-3.947,14.674-6.98,21.152-9.271c8.555-3.024,16.207-4.681,23.729-5.148
		c1.475-0.092,2.946-0.154,4.417-0.154c0,0,0,0,0,0c2.474,0,4.949,0.125,7.569,0.381l2.528,0.255
		c0.085,0.009,0.169,0.018,0.254,0.027c3.29,0.335,6.575,0.692,9.875,1.116c14.669,1.882,29.624,5.054,46.462,13.246
		c13.442,6.541,28.024,15.677,40.889,23.737c8.532,5.346,15.901,9.963,21.184,12.692c1.038,0.537,2.125,1.103,3.252,1.69
		c5.534,2.883,11.916,6.199,18.481,9.119c9.344,4.154,19.065,7.499,27.276,7.59c0.556,0.006,1.1,0.009,1.627,0.009
		c13.275,0,18.764-1.953,23.494-8.359c0.279-0.378,0.534-0.732,0.777-1.075c0.076-0.106,0.146-0.209,0.219-0.312
		c0.169-0.241,0.329-0.474,0.48-0.698c0.065-0.097,0.133-0.195,0.195-0.289c0.19-0.286,0.37-0.563,0.534-0.823
		c0.018-0.029,0.035-0.057,0.053-0.086c0.155-0.249,0.297-0.485,0.43-0.713c0.047-0.08,0.09-0.158,0.135-0.236
		c0.096-0.169,0.186-0.332,0.269-0.489c0.037-0.071,0.076-0.143,0.111-0.211c0.108-0.212,0.21-0.417,0.298-0.61
		c0.007-0.013,0.011-0.024,0.017-0.037c0.083-0.184,0.156-0.358,0.223-0.527c0.022-0.055,0.042-0.108,0.063-0.162
		c0.049-0.13,0.094-0.257,0.134-0.38c0.01-0.028,0.022-0.06,0.031-0.088c7.292,6.843,22.796,21.857,31.017,33.244l0.001,0.001
		l-0.034,0.022l-0.135,0.092c-0.001,0-0.001,0.001-0.002,0.001c-0.238,0.161-0.49,0.33-0.738,0.494l-0.17,0.111
		c-0.201,0.133-0.408,0.267-0.614,0.399c-0.078,0.051-0.156,0.103-0.233,0.152l-0.164,0.104c-0.285,0.183-0.585,0.371-0.914,0.576
		c-0.019,0.011-0.034,0.021-0.052,0.032l-0.023,0.015l-0.068,0.044c-0.214,0.133-0.441,0.271-0.682,0.416
		c-0.135,0.082-0.268,0.162-0.418,0.252l-0.098,0.06l-0.002,0.001c0,0,0,0-0.001,0c-0.353,0.21-0.717,0.424-1.102,0.645l-0.19,0.109
		c-0.363,0.208-0.733,0.414-1.118,0.624l-0.217,0.118c-0.378,0.204-0.76,0.406-1.168,0.616l-0.197,0.101
		c-0.388,0.197-0.777,0.391-1.247,0.614l-0.138,0.065c-0.394,0.186-0.788,0.364-1.165,0.528l-0.205,0.088
		c-0.397,0.172-0.796,0.335-1.223,0.499l-0.109,0.042c-0.402,0.153-0.803,0.297-1.281,0.453c-0.403,0.131-0.803,0.25-1.194,0.352
		c-3.475,0.9-7.931,1.431-12.987,1.549c-0.723,0.017-1.457,0.025-2.203,0.025c-7.078,0-15.167-0.739-24.043-2.196
		c-18.672-3.065-59.844-23.718-60.258-23.927l-5.683-2.86l2.215,5.964c0.149,0.401,14.93,40.277,18.304,56.586
		c2.864,13.841-7.641,17.167-8.835,17.498l-3.257,0.864l1.772,2.866c0.255,0.413,25.606,41.444,29.835,49.337l0.546,1.019
		l1.129,0.244c0.717,0.155,1.619,0.23,2.758,0.23c0.017,0,0.036-0.001,0.053-0.001c0.252,0,0.517-0.004,0.795-0.013
		c0.121-0.004,0.253-0.011,0.379-0.016c0.181-0.008,0.359-0.014,0.549-0.023c0.157-0.009,0.324-0.021,0.487-0.031
		c0.175-0.011,0.346-0.021,0.527-0.034c0.18-0.013,0.37-0.029,0.557-0.045c0.176-0.015,0.35-0.027,0.533-0.044
		c0.203-0.019,0.415-0.039,0.625-0.06c0.179-0.018,0.355-0.034,0.539-0.053c0.226-0.023,0.459-0.05,0.692-0.075
		c0.18-0.02,0.358-0.039,0.542-0.061c0.246-0.028,0.499-0.059,0.752-0.089c0.184-0.022,0.367-0.045,0.556-0.068
		c0.264-0.033,0.533-0.068,0.805-0.104c0.187-0.024,0.374-0.049,0.564-0.075c0.286-0.038,0.577-0.078,0.871-0.119
		c0.184-0.025,0.369-0.052,0.556-0.078c0.307-0.044,0.619-0.089,0.934-0.135c0.184-0.027,0.368-0.055,0.554-0.082
		c0.333-0.05,0.668-0.101,1.009-0.153c0.171-0.026,0.343-0.053,0.517-0.08c0.361-0.057,0.726-0.113,1.096-0.173
		c0.16-0.025,0.322-0.052,0.483-0.077c0.39-0.063,0.781-0.127,1.18-0.192c0.148-0.025,0.299-0.05,0.449-0.075
		c0.418-0.069,0.839-0.141,1.267-0.213c0.125-0.021,0.251-0.043,0.376-0.064c0.46-0.079,0.923-0.159,1.394-0.241
		c0.082-0.015,0.166-0.029,0.249-0.044c22.636-3.972,56.178-11.714,74.05-16.334c0.029-0.007,0.058-0.015,0.086-0.021
		c0.43-0.111,0.852-0.221,1.263-0.328c0.031-0.009,0.061-0.017,0.091-0.024c0.41-0.107,0.812-0.213,1.202-0.315
		c0.022-0.006,0.044-0.012,0.065-0.018c0.392-0.104,0.772-0.205,1.143-0.304c0.04-0.011,0.077-0.021,0.116-0.031
		c0.354-0.096,0.701-0.188,1.036-0.279c0.03-0.009,0.06-0.017,0.09-0.025c1.413-0.384,2.644-0.73,3.669-1.033
		c0.022-0.006,0.048-0.014,0.069-0.02c0.16-0.048,0.304-0.092,0.453-0.137c0.106-0.031,0.219-0.065,0.32-0.096
		c0.113-0.035,0.215-0.067,0.322-0.101c0.105-0.032,0.219-0.067,0.317-0.099l1.195-0.264c0.84-0.187,20.619-4.563,25.169-5.862
		l1.22-0.349l0.439-1.19c1.883-5.106,11.461-27.474,13.029-29.565l0.164-0.221c1.896-2.543,6.932-9.299,18.459-9.299
		c0.997,0,2.033,0.052,3.08,0.153c1.995,0.193,4.2,0.387,6.572,0.575c0.88,0.07,1.778,0.14,2.703,0.208
		c14.382,1.069,32.284,1.846,41.827,2.033c5.511,0.106,12.554,0.107,18.768,0.107l4.406,0.002c0.474,0.001,0.951,0.001,1.427,0.003
		c3.023,0.007,5.946,0.027,6.992,0.097c0.158,0.011,15.811,1.37,16.438,12.531c0.524,9.34,0.327,11.796-8.103,18.383l-1.538,1.201
		l0.793,1.784c1.458,3.281,4.493,10.111,3.685,17.038c-0.229,1.972-1.67,8.762-10.537,13.383l-1.728,0.9l0.451,1.896
		c1.662,6.987,2.959,15.993-1.811,23.674c-3.845,6.192-11.171,10.566-21.772,13.002l-4.95,1.133
		c-28.045,6.399-41.785,9.076-57.608,11.143c-1.055,0.138-2.119,0.273-3.197,0.406l-0.366,0.046l-0.337,0.148
		c-0.896,0.396-2.115,0.996-3.729,1.837c-0.343,0.179-0.714,0.375-1.092,0.575c-14.22,7.557-52.262,30.263-53.937,31.264
		l-26.228,15.999l-1.38,0.842c-1.249,0.652-18.155,9.474-23.52,11.485c-0.714,0.268-1.397,0.437-2.042,0.507
		c-0.078,0.008-0.152,0.009-0.229,0.014c-0.126,0.01-0.253,0.02-0.377,0.021c-0.017,0-0.034,0.003-0.051,0.003h-0.001
		c-0.042,0-0.08-0.009-0.122-0.01c-0.204-0.005-0.404-0.021-0.6-0.048c-0.084-0.011-0.168-0.021-0.251-0.037
		c-0.222-0.04-0.439-0.093-0.652-0.16c-0.085-0.027-0.168-0.063-0.252-0.094c-0.144-0.054-0.286-0.112-0.426-0.178
		c-0.096-0.045-0.191-0.09-0.286-0.14c-0.19-0.101-0.378-0.21-0.563-0.331c-0.093-0.062-0.185-0.13-0.276-0.196
		c-0.121-0.087-0.241-0.176-0.36-0.271c-0.094-0.074-0.188-0.148-0.281-0.229c-0.184-0.157-0.367-0.32-0.55-0.495
		c-0.068-0.065-0.137-0.137-0.204-0.205c-0.149-0.149-0.3-0.302-0.449-0.462c-0.067-0.072-0.136-0.146-0.203-0.22
		c-0.206-0.227-0.411-0.458-0.619-0.702c-1.035-1.217-1.844-2.572-2.402-3.644l0.131,0.285l-2.448,0.974
		c-0.483,0.192-1.236,0.491-2.205,0.876c0.462,0.9,1.066,1.968,1.825,3.063c0.002,0.002,0.004,0.005,0.006,0.008
		c0.133,0.19,0.27,0.382,0.411,0.573c0.274,0.37,0.565,0.74,0.873,1.103c1.282,1.508,2.769,3.032,4.609,4.1
		c0.053,0.03,0.104,0.062,0.157,0.092c0.138,0.077,0.28,0.149,0.423,0.222c0.149,0.075,0.301,0.146,0.454,0.215
		c0.109,0.049,0.218,0.1,0.329,0.145c0.269,0.109,0.542,0.21,0.824,0.298c0.092,0.029,0.188,0.052,0.281,0.078
		c0.209,0.059,0.421,0.112,0.638,0.158c0.132,0.027,0.263,0.055,0.397,0.078c0.214,0.036,0.434,0.064,0.656,0.088
		c0.197,0.021,0.398,0.036,0.604,0.046c0.176,0.009,0.351,0.021,0.532,0.021c0.001,0,0.001,0,0.001,0
		c0.045,0,0.092-0.006,0.137-0.007c0.203-0.003,0.409-0.017,0.614-0.03c0.201-0.015,0.402-0.032,0.606-0.057
		c0.187-0.023,0.375-0.051,0.563-0.083c0.252-0.043,0.506-0.098,0.76-0.157c0.158-0.037,0.316-0.07,0.476-0.114
		c0.43-0.117,0.862-0.251,1.298-0.414c5.83-2.187,23.409-11.385,24.155-11.775l27.799-16.952c0.046-0.027,0.585-0.35,1.525-0.909
		c6.787-4.042,34.484-20.495,48.693-28.329c1.729-0.953,3.27-1.786,4.536-2.446c0.389-0.202,0.746-0.386,1.089-0.56
		c0.034-0.018,0.064-0.033,0.099-0.05c0.313-0.159,0.605-0.305,0.878-0.438c0.075-0.037,0.152-0.075,0.225-0.11
		c0.298-0.146,0.579-0.28,0.822-0.392c0.529-0.065,1.056-0.132,1.579-0.199c0.133-0.017,0.264-0.034,0.396-0.051
		c0.392-0.051,0.784-0.102,1.174-0.152c0.156-0.021,0.312-0.041,0.468-0.063c0.359-0.047,0.72-0.095,1.077-0.144
		c0.173-0.022,0.345-0.047,0.517-0.07c0.346-0.047,0.691-0.094,1.036-0.142c0.17-0.023,0.339-0.048,0.509-0.071
		c0.341-0.048,0.683-0.097,1.022-0.145c0.182-0.026,0.363-0.053,0.545-0.079c0.327-0.047,0.655-0.095,0.982-0.143
		c0.197-0.029,0.395-0.059,0.591-0.088c0.311-0.046,0.621-0.093,0.932-0.14c0.205-0.03,0.409-0.063,0.614-0.094
		c0.309-0.047,0.618-0.095,0.928-0.143c0.204-0.032,0.409-0.064,0.614-0.097c0.311-0.049,0.621-0.098,0.933-0.147
		c0.203-0.033,0.407-0.065,0.611-0.099c0.317-0.052,0.635-0.104,0.953-0.155c0.201-0.033,0.402-0.066,0.604-0.1
		c0.323-0.054,0.647-0.108,0.973-0.163c0.2-0.034,0.4-0.067,0.602-0.102c0.332-0.057,0.665-0.114,0.999-0.172
		c0.198-0.034,0.396-0.069,0.596-0.104c0.335-0.059,0.673-0.118,1.011-0.178c0.204-0.036,0.408-0.072,0.613-0.109
		c0.342-0.062,0.686-0.123,1.031-0.186c0.202-0.037,0.405-0.074,0.608-0.111c0.354-0.064,0.711-0.131,1.068-0.196
		c0.201-0.038,0.402-0.075,0.605-0.112c0.358-0.067,0.721-0.136,1.084-0.204c0.211-0.04,0.421-0.08,0.634-0.12
		c0.364-0.07,0.733-0.141,1.104-0.212c0.209-0.041,0.417-0.081,0.629-0.122c0.398-0.077,0.804-0.156,1.209-0.236
		c0.188-0.037,0.375-0.073,0.564-0.111c0.44-0.087,0.888-0.176,1.336-0.266c0.161-0.032,0.32-0.064,0.482-0.097
		c0.485-0.098,0.978-0.197,1.473-0.298c0.135-0.027,0.267-0.054,0.402-0.082c0.562-0.114,1.133-0.231,1.708-0.351
		c0.073-0.016,0.145-0.03,0.218-0.045c0.651-0.135,1.312-0.272,1.98-0.413c0.117-0.024,0.238-0.051,0.356-0.075
		c0.553-0.116,1.108-0.233,1.675-0.354c0.22-0.047,0.446-0.096,0.668-0.143c0.463-0.099,0.925-0.197,1.396-0.299
		c0.338-0.072,0.685-0.147,1.027-0.221c0.359-0.078,0.716-0.155,1.081-0.234c0.417-0.09,0.845-0.184,1.27-0.276
		c0.3-0.065,0.598-0.13,0.902-0.196c0.464-0.102,0.938-0.206,1.411-0.311c0.281-0.062,0.562-0.123,0.847-0.187
		c0.498-0.109,1.006-0.223,1.514-0.335c0.263-0.059,0.524-0.116,0.79-0.175c0.554-0.124,1.118-0.25,1.685-0.376
		c0.224-0.05,0.445-0.1,0.67-0.15c0.614-0.137,1.238-0.277,1.867-0.419c0.188-0.042,0.374-0.084,0.563-0.127
		c0.665-0.149,1.34-0.303,2.022-0.457c1.358-0.307,2.74-0.621,4.171-0.947l1.526-0.35l3.43-0.785
		c11.949-2.745,20.327-7.871,24.9-15.237c5.755-9.267,4.077-20.063,2.853-25.627c9.538-5.74,11.205-13.834,11.491-16.283
		c0.832-7.131-1.577-13.808-3.31-17.882C608.596,492.651,609.143,488.425,608.574,478.299z"/>
	<path fill="#C3E88D" d="M375.612,638.125l-0.131-0.285l-0.97-2.108c-0.081-0.176-8.102-17.646-11.189-26.412
		c-2.732-7.761-7.376-24.341-8.148-31.646c-1.282-12.129-1.287-29.598-1.287-29.773l-0.052-2.501h-2.501
		c-0.122,0-0.311,0.002-0.562,0.011c-1.757,0.061-6.575,0.446-13.011,2.72c-0.996,0.352-1.937,0.713-2.827,1.081
		c-4.451,1.841-7.643,3.865-10.243,5.901c-1.041,0.814-1.986,1.631-2.879,2.438c-4.035,3.646-10.443,10.949-15.652,17.03
		c0.93-2.311,2.042-4.632,3.237-6.879c5.178-9.739,11.899-18.097,12.006-18.228l1.083-1.338l-35.695-61.629L166.427,546.99
		l1.737,2.383c1.26,1.729,30.921,42.403,35.521,47.635l0.95,1.086c3.473,3.971,6.769,7.695,9.904,11.199
		c21.021,23.493,34.583,36.787,42.555,44.005c0.607,0.55,1.207,1.074,1.806,1.59l0.471,0.401c0.538,0.455,1.071,0.899,1.671,1.383
		l0.11,0.09c0.574,0.461,1.142,0.9,1.706,1.328l0.489,0.367c0.463,0.345,0.922,0.679,1.378,1.003l0.345,0.246
		c0.532,0.373,1.057,0.729,1.583,1.076l0.536,0.348c0.389,0.251,0.774,0.495,1.164,0.734l0.489,0.302
		c0.482,0.291,0.959,0.567,1.429,0.832l0.635,0.352c0.306,0.167,0.61,0.33,0.916,0.49l0.645,0.335
		c0.428,0.216,0.851,0.423,1.276,0.624c0.249,0.116,0.493,0.228,0.743,0.34c0.225,0.101,0.449,0.2,0.663,0.293
		c0.262,0.113,0.523,0.227,0.782,0.334l1.116,0.443c0.02,0.008,0.04,0.014,0.06,0.021c4.434,1.684,8.851,2.54,13.13,2.54
		c0,0,0,0,0,0c4.044,0,7.162-0.764,9.024-1.22l0.64-0.154c4.585-1.079,58.045-22.255,71.059-27.421
		c0.969-0.385,1.722-0.684,2.205-0.876L375.612,638.125z M298.755,662.529l-0.684,0.165c-1.75,0.429-4.393,1.076-7.835,1.076
		c-3.686,0-7.523-0.751-11.403-2.231h0l-0.995-0.396c-0.229-0.095-0.462-0.196-0.703-0.301l-0.465-0.206l-0.132-0.059
		c-0.223-0.101-0.445-0.2-0.665-0.304c-0.379-0.179-0.763-0.366-1.153-0.563l-0.582-0.303c-0.276-0.145-0.555-0.294-0.916-0.491
		l-0.489-0.271c-0.433-0.245-0.87-0.498-1.312-0.764l-0.228-0.141l-0.227-0.14c-0.111-0.068-0.225-0.143-0.336-0.213
		c-0.243-0.151-0.485-0.303-0.73-0.461l-0.496-0.321c-0.484-0.319-0.971-0.649-1.476-1.003l-0.306-0.219
		c-0.426-0.303-0.856-0.615-1.284-0.935l-0.462-0.347c-0.527-0.399-1.057-0.81-1.661-1.295l-0.105-0.086
		c-0.498-0.402-1-0.819-1.505-1.247l-0.448-0.383c-0.564-0.485-1.132-0.98-1.708-1.502c-3.111-2.817-7.087-6.573-12.042-11.522
		c-0.006-0.006-0.011-0.011-0.017-0.017c-0.951-0.95-1.941-1.948-2.966-2.988c-0.833-0.846-1.693-1.725-2.577-2.633
		c-0.209-0.215-0.421-0.434-0.633-0.652c-8.746-9.018-19.876-21.038-33.815-36.978l-0.959-1.095
		c-3.829-4.355-26.927-35.906-33.497-44.897l110.884-55.718l31.622,54.596c-3.887,5.044-16.851,22.808-17.889,36.553l-0.569,7.538
		l4.951-5.712c0.706-0.814,1.72-2.009,2.943-3.45c1.068-1.259,2.34-2.756,3.717-4.365c4.675-5.463,10.634-12.287,14.586-16.078
		c0.341-0.327,0.667-0.632,0.976-0.911c2.97-2.684,6.768-5.768,14.264-8.416c4.061-1.436,7.373-2.029,9.475-2.274
		c0.003,0.339,0.007,0.706,0.012,1.099c0.071,5.888,0.332,17.484,1.288,26.53c0.809,7.655,5.594,24.8,8.405,32.78
		c0.625,1.776,1.435,3.871,2.333,6.094c0.026,0.064,0.053,0.131,0.08,0.194c0.425,1.051,0.869,2.128,1.323,3.213
		c0.12,0.287,0.242,0.575,0.363,0.862c0.122,0.288,0.242,0.575,0.364,0.863c2.2,5.19,4.494,10.314,5.808,13.216l0,0
		C341.618,646.245,302.109,661.74,298.755,662.529z"/>
	<path fill="#C3E88D" d="M553.005,608.378c1.3-5.497,4.941-20.939,7.707-32.881l-1.526,0.35c-1.431,0.326-2.813,0.641-4.171,0.947
		c0.094-0.021,0.184-0.041,0.278-0.063c-2.677,11.527-5.94,25.36-7.154,30.5L553.005,608.378L553.005,608.378z"/>
	<path fill="#C3E88D" d="M494.523,597.666L494.523,597.666L494.523,597.666c0.392-1.989,0.965-5.091,1.709-9.238
		c-0.343,0.174-0.7,0.357-1.089,0.56c-1.267,0.66-2.808,1.493-4.536,2.446c-0.426,2.327-0.768,4.141-1.023,5.438h0.001
		L494.523,597.666z"/>
	<path fill="#C3E88D" d="M553.005,608.378L553.005,608.378l-4.866-1.146l-53.615-9.566l-4.938-0.795h-0.001
		c-0.267,0.047-4.994,2.032-5.59,7.939c-1.126,11.175,3.554,30.893,16.544,37.501c5.494,2.795,12.455,4.398,19.097,4.398
		c0.001,0,0.001,0,0.002,0c7.679,0,14.578-2.036,19.949-5.89c11.753-8.432,16.012-20.338,16.577-23.845
		c0.695-4.329-1.728-6.945-3.089-8.544L553.005,608.378z M551.227,616.181c-0.391,2.42-4.004,13.007-14.555,20.576
		c-5.706,4.094-12.413,4.952-17.035,4.952c-0.001,0-0.001,0-0.002,0c-5.88,0-12.014-1.405-16.829-3.855
		c-11.331-5.764-14.99-23.868-13.854-32.384c0.21-1.577,0.644-2.708,1.138-3.517l40.388,7.206l20.53,3.663l0,0
		C551.306,613.645,551.457,614.743,551.227,616.181z"/>
</g>
<g id="swatch">
</g>
</svg>
